<svg version="1.1" xmlns:xlink="http://www.w3.org/1999/xlink" xmlns="http://www.w3.org/2000/svg" width="512" height="512">
<line x1="269" y1="275" x2="167" y2="223" style="stroke:rgb(0,0,0);stroke-width:1" />
<line x1="167" y1="223" x2="209" y2="292" style="stroke:rgb(0,0,0);stroke-width:1" />
<line x1="209" y1="292" x2="269" y2="275" style="stroke:rgb(0,0,0);stroke-width:1" />
<line x1="269" y1="275" x2="244" y2="83" style="stroke:rgb(0,0,0);stroke-width:1" />
<line x1="244" y1="83" x2="209" y2="292" style="stroke:rgb(0,0,0);stroke-width:1" />
<line x1="209" y1="292" x2="269" y2="275" style="stroke:rgb(0,0,0);stroke-width:1" />
<line x1="167" y1="223" x2="193" y2="56" style="stroke:rgb(0,0,0);stroke-width:1" />
<line x1="193" y1="56" x2="123" y2="35" style="stroke:rgb(0,0,0);stroke-width:1" />
<line x1="123" y1="35" x2="167" y2="223" style="stroke:rgb(0,0,0);stroke-width:1" />
<line x1="94" y1="231" x2="301" y2="98" style="stroke:rgb(0,0,0);stroke-width:1" />
<line x1="301" y1="98" x2="269" y2="275" style="stroke:rgb(0,0,0);stroke-width:1" />
<line x1="269" y1="275" x2="94" y2="231" style="stroke:rgb(0,0,0);stroke-width:1" />
<line x1="123" y1="35" x2="193" y2="56" style="stroke:rgb(0,0,0);stroke-width:1" />
<line x1="193" y1="56" x2="244" y2="83" style="stroke:rgb(0,0,0);stroke-width:1" />
<line x1="244" y1="83" x2="123" y2="35" style="stroke:rgb(0,0,0);stroke-width:1" />
<line x1="123" y1="35" x2="167" y2="223" style="stroke:rgb(0,0,0);stroke-width:1" />
<line x1="167" y1="223" x2="94" y2="231" style="stroke:rgb(0,0,0);stroke-width:1" />
<line x1="94" y1="231" x2="123" y2="35" style="stroke:rgb(0,0,0);stroke-width:1" />
<line x1="193" y1="56" x2="301" y2="98" style="stroke:rgb(0,0,0);stroke-width:1" />
<line x1="301" y1="98" x2="301" y2="98" style="stroke:rgb(0,0,0);stroke-width:1" />
<line x1="301" y1="98" x2="193" y2="56" style="stroke:rgb(0,0,0);stroke-width:1" />
<line x1="244" y1="83" x2="94" y2="231" style="stroke:rgb(0,0,0);stroke-width:1" />
<line x1="94" y1="231" x2="209" y2="292" style="stroke:rgb(0,0,0);stroke-width:1" />
<line x1="209" y1="292" x2="244" y2="83" style="stroke:rgb(0,0,0);stroke-width:1" />
<line x1="123" y1="35" x2="301" y2="98" style="stroke:rgb(0,0,0);stroke-width:1" />
<line x1="301" y1="98" x2="167" y2="223" style="stroke:rgb(0,0,0);stroke-width:1" />
<line x1="167" y1="223" x2="123" y2="35" style="stroke:rgb(0,0,0);stroke-width:1" />
<line x1="123" y1="35" x2="269" y2="275" style="stroke:rgb(0,0,0);stroke-width:1" />
<line x1="269" y1="275" x2="193" y2="56" style="stroke:rgb(0,0,0);stroke-width:1" />
<line x1="193" y1="56" x2="123" y2="35" style="stroke:rgb(0,0,0);stroke-width:1" />
<line x1="167" y1="223" x2="209" y2="292" style="stroke:rgb(0,0,0);stroke-width:1" />
<line x1="209" y1="292" x2="94" y2="231" style="stroke:rgb(0,0,0);stroke-width:1" />
<line x1="94" y1="231" x2="167" y2="223" style="stroke:rgb(0,0,0);stroke-width:1" />
<line x1="244" y1="83" x2="209" y2="292" style="stroke:rgb(0,0,0);stroke-width:1" />
<line x1="209" y1="292" x2="301" y2="98" style="stroke:rgb(0,0,0);stroke-width:1" />
<line x1="301" y1="98" x2="244" y2="83" style="stroke:rgb(0,0,0);stroke-width:1" />
<line x1="202" y1="422" x2="169" y2="402" style="stroke:rgb(0,0,0);stroke-width:1" />
<line x1="169" y1="402" x2="169" y2="402" style="stroke:rgb(0,0,0);stroke-width:1" />
<line x1="169" y1="402" x2="202" y2="422" style="stroke:rgb(0,0,0);stroke-width:1" />
<line x1="196" y1="240" x2="196" y2="240" style="stroke:rgb(0,0,0);stroke-width:1" />
<line x1="196" y1="240" x2="230" y2="258" style="stroke:rgb(0,0,0);stroke-width:1" />
<line x1="230" y1="258" x2="196" y2="240" style="stroke:rgb(0,0,0);stroke-width:1" />
<line x1="230" y1="258" x2="202" y2="422" style="stroke:rgb(0,0,0);stroke-width:1" />
<line x1="202" y1="422" x2="182" y2="435" style="stroke:rgb(0,0,0);stroke-width:1" />
<line x1="182" y1="435" x2="230" y2="258" style="stroke:rgb(0,0,0);stroke-width:1" />
<line x1="202" y1="422" x2="230" y2="258" style="stroke:rgb(0,0,0);stroke-width:1" />
<line x1="230" y1="258" x2="210" y2="262" style="stroke:rgb(0,0,0);stroke-width:1" />
<line x1="210" y1="262" x2="202" y2="422" style="stroke:rgb(0,0,0);stroke-width:1" />
<line x1="210" y1="262" x2="182" y2="435" style="stroke:rgb(0,0,0);stroke-width:1" />
<line x1="182" y1="435" x2="148" y2="414" style="stroke:rgb(0,0,0);stroke-width:1" />
<line x1="148" y1="414" x2="210" y2="262" style="stroke:rgb(0,0,0);stroke-width:1" />
<line x1="182" y1="435" x2="210" y2="262" style="stroke:rgb(0,0,0);stroke-width:1" />
<line x1="210" y1="262" x2="175" y2="243" style="stroke:rgb(0,0,0);stroke-width:1" />
<line x1="175" y1="243" x2="182" y2="435" style="stroke:rgb(0,0,0);stroke-width:1" />
<line x1="175" y1="243" x2="148" y2="414" style="stroke:rgb(0,0,0);stroke-width:1" />
<line x1="148" y1="414" x2="169" y2="402" style="stroke:rgb(0,0,0);stroke-width:1" />
<line x1="169" y1="402" x2="175" y2="243" style="stroke:rgb(0,0,0);stroke-width:1" />
<line x1="148" y1="414" x2="175" y2="243" style="stroke:rgb(0,0,0);stroke-width:1" />
<line x1="175" y1="243" x2="196" y2="240" style="stroke:rgb(0,0,0);stroke-width:1" />
<line x1="196" y1="240" x2="148" y2="414" style="stroke:rgb(0,0,0);stroke-width:1" />
<line x1="202" y1="422" x2="196" y2="240" style="stroke:rgb(0,0,0);stroke-width:1" />
<line x1="196" y1="240" x2="182" y2="435" style="stroke:rgb(0,0,0);stroke-width:1" />
<line x1="182" y1="435" x2="202" y2="422" style="stroke:rgb(0,0,0);stroke-width:1" />
<line x1="230" y1="258" x2="148" y2="414" style="stroke:rgb(0,0,0);stroke-width:1" />
<line x1="148" y1="414" x2="210" y2="262" style="stroke:rgb(0,0,0);stroke-width:1" />
<line x1="210" y1="262" x2="230" y2="258" style="stroke:rgb(0,0,0);stroke-width:1" />
<line x1="169" y1="402" x2="175" y2="243" style="stroke:rgb(0,0,0);stroke-width:1" />
<line x1="175" y1="243" x2="169" y2="402" style="stroke:rgb(0,0,0);stroke-width:1" />
<line x1="169" y1="402" x2="169" y2="402" style="stroke:rgb(0,0,0);stroke-width:1" />
<line x1="182" y1="435" x2="175" y2="243" style="stroke:rgb(0,0,0);stroke-width:1" />
<line x1="175" y1="243" x2="230" y2="258" style="stroke:rgb(0,0,0);stroke-width:1" />
<line x1="230" y1="258" x2="182" y2="435" style="stroke:rgb(0,0,0);stroke-width:1" />
<line x1="168" y1="443" x2="134" y2="421" style="stroke:rgb(0,0,0);stroke-width:1" />
<line x1="134" y1="421" x2="134" y2="421" style="stroke:rgb(0,0,0);stroke-width:1" />
<line x1="134" y1="421" x2="168" y2="443" style="stroke:rgb(0,0,0);stroke-width:1" />
<line x1="161" y1="246" x2="161" y2="246" style="stroke:rgb(0,0,0);stroke-width:1" />
<line x1="161" y1="246" x2="198" y2="265" style="stroke:rgb(0,0,0);stroke-width:1" />
<line x1="198" y1="265" x2="161" y2="246" style="stroke:rgb(0,0,0);stroke-width:1" />
<line x1="198" y1="265" x2="168" y2="443" style="stroke:rgb(0,0,0);stroke-width:1" />
<line x1="168" y1="443" x2="144" y2="458" style="stroke:rgb(0,0,0);stroke-width:1" />
<line x1="144" y1="458" x2="198" y2="265" style="stroke:rgb(0,0,0);stroke-width:1" />
<line x1="168" y1="443" x2="198" y2="265" style="stroke:rgb(0,0,0);stroke-width:1" />
<line x1="198" y1="265" x2="174" y2="270" style="stroke:rgb(0,0,0);stroke-width:1" />
<line x1="174" y1="270" x2="168" y2="443" style="stroke:rgb(0,0,0);stroke-width:1" />
<line x1="174" y1="270" x2="144" y2="458" style="stroke:rgb(0,0,0);stroke-width:1" />
<line x1="144" y1="458" x2="108" y2="434" style="stroke:rgb(0,0,0);stroke-width:1" />
<line x1="108" y1="434" x2="174" y2="270" style="stroke:rgb(0,0,0);stroke-width:1" />
<line x1="144" y1="458" x2="174" y2="270" style="stroke:rgb(0,0,0);stroke-width:1" />
<line x1="174" y1="270" x2="136" y2="250" style="stroke:rgb(0,0,0);stroke-width:1" />
<line x1="136" y1="250" x2="144" y2="458" style="stroke:rgb(0,0,0);stroke-width:1" />
<line x1="136" y1="250" x2="108" y2="434" style="stroke:rgb(0,0,0);stroke-width:1" />
<line x1="108" y1="434" x2="134" y2="421" style="stroke:rgb(0,0,0);stroke-width:1" />
<line x1="134" y1="421" x2="136" y2="250" style="stroke:rgb(0,0,0);stroke-width:1" />
<line x1="108" y1="434" x2="136" y2="250" style="stroke:rgb(0,0,0);stroke-width:1" />
<line x1="136" y1="250" x2="161" y2="246" style="stroke:rgb(0,0,0);stroke-width:1" />
<line x1="161" y1="246" x2="108" y2="434" style="stroke:rgb(0,0,0);stroke-width:1" />
<line x1="168" y1="443" x2="161" y2="246" style="stroke:rgb(0,0,0);stroke-width:1" />
<line x1="161" y1="246" x2="144" y2="458" style="stroke:rgb(0,0,0);stroke-width:1" />
<line x1="144" y1="458" x2="168" y2="443" style="stroke:rgb(0,0,0);stroke-width:1" />
<line x1="198" y1="265" x2="108" y2="434" style="stroke:rgb(0,0,0);stroke-width:1" />
<line x1="108" y1="434" x2="174" y2="270" style="stroke:rgb(0,0,0);stroke-width:1" />
<line x1="174" y1="270" x2="198" y2="265" style="stroke:rgb(0,0,0);stroke-width:1" />
<line x1="134" y1="421" x2="136" y2="250" style="stroke:rgb(0,0,0);stroke-width:1" />
<line x1="136" y1="250" x2="134" y2="421" style="stroke:rgb(0,0,0);stroke-width:1" />
<line x1="134" y1="421" x2="134" y2="421" style="stroke:rgb(0,0,0);stroke-width:1" />
<line x1="144" y1="458" x2="136" y2="250" style="stroke:rgb(0,0,0);stroke-width:1" />
<line x1="136" y1="250" x2="198" y2="265" style="stroke:rgb(0,0,0);stroke-width:1" />
<line x1="198" y1="265" x2="144" y2="458" style="stroke:rgb(0,0,0);stroke-width:1" />
<line x1="259" y1="78" x2="245" y2="72" style="stroke:rgb(0,0,0);stroke-width:1" />
<line x1="245" y1="72" x2="245" y2="72" style="stroke:rgb(0,0,0);stroke-width:1" />
<line x1="245" y1="72" x2="259" y2="78" style="stroke:rgb(0,0,0);stroke-width:1" />
<line x1="247" y1="61" x2="247" y2="61" style="stroke:rgb(0,0,0);stroke-width:1" />
<line x1="247" y1="61" x2="261" y2="66" style="stroke:rgb(0,0,0);stroke-width:1" />
<line x1="261" y1="66" x2="247" y2="61" style="stroke:rgb(0,0,0);stroke-width:1" />
<line x1="261" y1="66" x2="259" y2="78" style="stroke:rgb(0,0,0);stroke-width:1" />
<line x1="259" y1="78" x2="180" y2="55" style="stroke:rgb(0,0,0);stroke-width:1" />
<line x1="180" y1="55" x2="261" y2="66" style="stroke:rgb(0,0,0);stroke-width:1" />
<line x1="259" y1="78" x2="261" y2="66" style="stroke:rgb(0,0,0);stroke-width:1" />
<line x1="261" y1="66" x2="183" y2="40" style="stroke:rgb(0,0,0);stroke-width:1" />
<line x1="183" y1="40" x2="259" y2="78" style="stroke:rgb(0,0,0);stroke-width:1" />
<line x1="183" y1="40" x2="180" y2="55" style="stroke:rgb(0,0,0);stroke-width:1" />
<line x1="180" y1="55" x2="164" y2="48" style="stroke:rgb(0,0,0);stroke-width:1" />
<line x1="164" y1="48" x2="183" y2="40" style="stroke:rgb(0,0,0);stroke-width:1" />
<line x1="180" y1="55" x2="183" y2="40" style="stroke:rgb(0,0,0);stroke-width:1" />
<line x1="183" y1="40" x2="166" y2="34" style="stroke:rgb(0,0,0);stroke-width:1" />
<line x1="166" y1="34" x2="180" y2="55" style="stroke:rgb(0,0,0);stroke-width:1" />
<line x1="166" y1="34" x2="164" y2="48" style="stroke:rgb(0,0,0);stroke-width:1" />
<line x1="164" y1="48" x2="245" y2="72" style="stroke:rgb(0,0,0);stroke-width:1" />
<line x1="245" y1="72" x2="166" y2="34" style="stroke:rgb(0,0,0);stroke-width:1" />
<line x1="164" y1="48" x2="166" y2="34" style="stroke:rgb(0,0,0);stroke-width:1" />
<line x1="166" y1="34" x2="247" y2="61" style="stroke:rgb(0,0,0);stroke-width:1" />
<line x1="247" y1="61" x2="164" y2="48" style="stroke:rgb(0,0,0);stroke-width:1" />
<line x1="259" y1="78" x2="247" y2="61" style="stroke:rgb(0,0,0);stroke-width:1" />
<line x1="247" y1="61" x2="180" y2="55" style="stroke:rgb(0,0,0);stroke-width:1" />
<line x1="180" y1="55" x2="259" y2="78" style="stroke:rgb(0,0,0);stroke-width:1" />
<line x1="261" y1="66" x2="164" y2="48" style="stroke:rgb(0,0,0);stroke-width:1" />
<line x1="164" y1="48" x2="183" y2="40" style="stroke:rgb(0,0,0);stroke-width:1" />
<line x1="183" y1="40" x2="261" y2="66" style="stroke:rgb(0,0,0);stroke-width:1" />
<line x1="245" y1="72" x2="166" y2="34" style="stroke:rgb(0,0,0);stroke-width:1" />
<line x1="166" y1="34" x2="245" y2="72" style="stroke:rgb(0,0,0);stroke-width:1" />
<line x1="245" y1="72" x2="245" y2="72" style="stroke:rgb(0,0,0);stroke-width:1" />
<line x1="180" y1="55" x2="166" y2="34" style="stroke:rgb(0,0,0);stroke-width:1" />
<line x1="166" y1="34" x2="261" y2="66" style="stroke:rgb(0,0,0);stroke-width:1" />
<line x1="261" y1="66" x2="180" y2="55" style="stroke:rgb(0,0,0);stroke-width:1" />
<line x1="180" y1="204" x2="141" y2="185" style="stroke:rgb(0,0,0);stroke-width:1" />
<line x1="141" y1="185" x2="141" y2="185" style="stroke:rgb(0,0,0);stroke-width:1" />
<line x1="141" y1="185" x2="180" y2="204" style="stroke:rgb(0,0,0);stroke-width:1" />
<line x1="151" y1="118" x2="151" y2="118" style="stroke:rgb(0,0,0);stroke-width:1" />
<line x1="151" y1="118" x2="191" y2="136" style="stroke:rgb(0,0,0);stroke-width:1" />
<line x1="191" y1="136" x2="151" y2="118" style="stroke:rgb(0,0,0);stroke-width:1" />
<line x1="191" y1="136" x2="180" y2="204" style="stroke:rgb(0,0,0);stroke-width:1" />
<line x1="180" y1="204" x2="167" y2="205" style="stroke:rgb(0,0,0);stroke-width:1" />
<line x1="167" y1="205" x2="191" y2="136" style="stroke:rgb(0,0,0);stroke-width:1" />
<line x1="180" y1="204" x2="191" y2="136" style="stroke:rgb(0,0,0);stroke-width:1" />
<line x1="191" y1="136" x2="178" y2="135" style="stroke:rgb(0,0,0);stroke-width:1" />
<line x1="178" y1="135" x2="180" y2="204" style="stroke:rgb(0,0,0);stroke-width:1" />
<line x1="178" y1="135" x2="167" y2="205" style="stroke:rgb(0,0,0);stroke-width:1" />
<line x1="167" y1="205" x2="127" y2="186" style="stroke:rgb(0,0,0);stroke-width:1" />
<line x1="127" y1="186" x2="178" y2="135" style="stroke:rgb(0,0,0);stroke-width:1" />
<line x1="167" y1="205" x2="178" y2="135" style="stroke:rgb(0,0,0);stroke-width:1" />
<line x1="178" y1="135" x2="137" y2="117" style="stroke:rgb(0,0,0);stroke-width:1" />
<line x1="137" y1="117" x2="167" y2="205" style="stroke:rgb(0,0,0);stroke-width:1" />
<line x1="137" y1="117" x2="127" y2="186" style="stroke:rgb(0,0,0);stroke-width:1" />
<line x1="127" y1="186" x2="141" y2="185" style="stroke:rgb(0,0,0);stroke-width:1" />
<line x1="141" y1="185" x2="137" y2="117" style="stroke:rgb(0,0,0);stroke-width:1" />
<line x1="127" y1="186" x2="137" y2="117" style="stroke:rgb(0,0,0);stroke-width:1" />
<line x1="137" y1="117" x2="151" y2="118" style="stroke:rgb(0,0,0);stroke-width:1" />
<line x1="151" y1="118" x2="127" y2="186" style="stroke:rgb(0,0,0);stroke-width:1" />
<line x1="180" y1="204" x2="151" y2="118" style="stroke:rgb(0,0,0);stroke-width:1" />
<line x1="151" y1="118" x2="167" y2="205" style="stroke:rgb(0,0,0);stroke-width:1" />
<line x1="167" y1="205" x2="180" y2="204" style="stroke:rgb(0,0,0);stroke-width:1" />
<line x1="191" y1="136" x2="127" y2="186" style="stroke:rgb(0,0,0);stroke-width:1" />
<line x1="127" y1="186" x2="178" y2="135" style="stroke:rgb(0,0,0);stroke-width:1" />
<line x1="178" y1="135" x2="191" y2="136" style="stroke:rgb(0,0,0);stroke-width:1" />
<line x1="141" y1="185" x2="137" y2="117" style="stroke:rgb(0,0,0);stroke-width:1" />
<line x1="137" y1="117" x2="141" y2="185" style="stroke:rgb(0,0,0);stroke-width:1" />
<line x1="141" y1="185" x2="141" y2="185" style="stroke:rgb(0,0,0);stroke-width:1" />
<line x1="167" y1="205" x2="137" y2="117" style="stroke:rgb(0,0,0);stroke-width:1" />
<line x1="137" y1="117" x2="191" y2="136" style="stroke:rgb(0,0,0);stroke-width:1" />
<line x1="191" y1="136" x2="167" y2="205" style="stroke:rgb(0,0,0);stroke-width:1" />
<line x1="183" y1="40" x2="166" y2="34" style="stroke:rgb(0,0,0);stroke-width:1" />
<line x1="166" y1="34" x2="169" y2="130" style="stroke:rgb(0,0,0);stroke-width:1" />
<line x1="169" y1="130" x2="183" y2="40" style="stroke:rgb(0,0,0);stroke-width:1" />
<line x1="183" y1="40" x2="188" y2="42" style="stroke:rgb(0,0,0);stroke-width:1" />
<line x1="188" y1="42" x2="171" y2="36" style="stroke:rgb(0,0,0);stroke-width:1" />
<line x1="171" y1="36" x2="183" y2="40" style="stroke:rgb(0,0,0);stroke-width:1" />
<line x1="174" y1="130" x2="188" y2="42" style="stroke:rgb(0,0,0);stroke-width:1" />
<line x1="188" y1="42" x2="171" y2="36" style="stroke:rgb(0,0,0);stroke-width:1" />
<line x1="171" y1="36" x2="174" y2="130" style="stroke:rgb(0,0,0);stroke-width:1" />
<line x1="166" y1="34" x2="188" y2="42" style="stroke:rgb(0,0,0);stroke-width:1" />
<line x1="188" y1="42" x2="183" y2="40" style="stroke:rgb(0,0,0);stroke-width:1" />
<line x1="183" y1="40" x2="166" y2="34" style="stroke:rgb(0,0,0);stroke-width:1" />
<line x1="166" y1="34" x2="153" y2="123" style="stroke:rgb(0,0,0);stroke-width:1" />
<line x1="153" y1="123" x2="171" y2="36" style="stroke:rgb(0,0,0);stroke-width:1" />
<line x1="171" y1="36" x2="166" y2="34" style="stroke:rgb(0,0,0);stroke-width:1" />
<line x1="158" y1="123" x2="169" y2="130" style="stroke:rgb(0,0,0);stroke-width:1" />
<line x1="169" y1="130" x2="174" y2="130" style="stroke:rgb(0,0,0);stroke-width:1" />
<line x1="174" y1="130" x2="158" y2="123" style="stroke:rgb(0,0,0);stroke-width:1" />
<line x1="153" y1="123" x2="158" y2="123" style="stroke:rgb(0,0,0);stroke-width:1" />
<line x1="158" y1="123" x2="158" y2="123" style="stroke:rgb(0,0,0);stroke-width:1" />
<line x1="158" y1="123" x2="153" y2="123" style="stroke:rgb(0,0,0);stroke-width:1" />
<line x1="174" y1="130" x2="169" y2="130" style="stroke:rgb(0,0,0);stroke-width:1" />
<line x1="169" y1="130" x2="153" y2="123" style="stroke:rgb(0,0,0);stroke-width:1" />
<line x1="153" y1="123" x2="174" y2="130" style="stroke:rgb(0,0,0);stroke-width:1" />
<line x1="188" y1="42" x2="166" y2="34" style="stroke:rgb(0,0,0);stroke-width:1" />
<line x1="166" y1="34" x2="174" y2="130" style="stroke:rgb(0,0,0);stroke-width:1" />
<line x1="174" y1="130" x2="188" y2="42" style="stroke:rgb(0,0,0);stroke-width:1" />
<line x1="183" y1="40" x2="171" y2="36" style="stroke:rgb(0,0,0);stroke-width:1" />
<line x1="171" y1="36" x2="153" y2="123" style="stroke:rgb(0,0,0);stroke-width:1" />
<line x1="153" y1="123" x2="183" y2="40" style="stroke:rgb(0,0,0);stroke-width:1" />
<line x1="188" y1="42" x2="158" y2="123" style="stroke:rgb(0,0,0);stroke-width:1" />
<line x1="158" y1="123" x2="153" y2="123" style="stroke:rgb(0,0,0);stroke-width:1" />
<line x1="153" y1="123" x2="188" y2="42" style="stroke:rgb(0,0,0);stroke-width:1" />
<line x1="183" y1="40" x2="169" y2="130" style="stroke:rgb(0,0,0);stroke-width:1" />
<line x1="169" y1="130" x2="158" y2="123" style="stroke:rgb(0,0,0);stroke-width:1" />
<line x1="158" y1="123" x2="183" y2="40" style="stroke:rgb(0,0,0);stroke-width:1" />
<line x1="252" y1="199" x2="218" y2="184" style="stroke:rgb(0,0,0);stroke-width:1" />
<line x1="218" y1="184" x2="218" y2="184" style="stroke:rgb(0,0,0);stroke-width:1" />
<line x1="218" y1="184" x2="252" y2="199" style="stroke:rgb(0,0,0);stroke-width:1" />
<line x1="227" y1="128" x2="227" y2="128" style="stroke:rgb(0,0,0);stroke-width:1" />
<line x1="227" y1="128" x2="262" y2="143" style="stroke:rgb(0,0,0);stroke-width:1" />
<line x1="262" y1="143" x2="227" y2="128" style="stroke:rgb(0,0,0);stroke-width:1" />
<line x1="262" y1="143" x2="252" y2="199" style="stroke:rgb(0,0,0);stroke-width:1" />
<line x1="252" y1="199" x2="243" y2="200" style="stroke:rgb(0,0,0);stroke-width:1" />
<line x1="243" y1="200" x2="262" y2="143" style="stroke:rgb(0,0,0);stroke-width:1" />
<line x1="252" y1="199" x2="262" y2="143" style="stroke:rgb(0,0,0);stroke-width:1" />
<line x1="262" y1="143" x2="253" y2="142" style="stroke:rgb(0,0,0);stroke-width:1" />
<line x1="253" y1="142" x2="252" y2="199" style="stroke:rgb(0,0,0);stroke-width:1" />
<line x1="253" y1="142" x2="243" y2="200" style="stroke:rgb(0,0,0);stroke-width:1" />
<line x1="243" y1="200" x2="209" y2="184" style="stroke:rgb(0,0,0);stroke-width:1" />
<line x1="209" y1="184" x2="253" y2="142" style="stroke:rgb(0,0,0);stroke-width:1" />
<line x1="243" y1="200" x2="253" y2="142" style="stroke:rgb(0,0,0);stroke-width:1" />
<line x1="253" y1="142" x2="218" y2="127" style="stroke:rgb(0,0,0);stroke-width:1" />
<line x1="218" y1="127" x2="243" y2="200" style="stroke:rgb(0,0,0);stroke-width:1" />
<line x1="218" y1="127" x2="209" y2="184" style="stroke:rgb(0,0,0);stroke-width:1" />
<line x1="209" y1="184" x2="218" y2="184" style="stroke:rgb(0,0,0);stroke-width:1" />
<line x1="218" y1="184" x2="218" y2="127" style="stroke:rgb(0,0,0);stroke-width:1" />
<line x1="209" y1="184" x2="218" y2="127" style="stroke:rgb(0,0,0);stroke-width:1" />
<line x1="218" y1="127" x2="227" y2="128" style="stroke:rgb(0,0,0);stroke-width:1" />
<line x1="227" y1="128" x2="209" y2="184" style="stroke:rgb(0,0,0);stroke-width:1" />
<line x1="252" y1="199" x2="227" y2="128" style="stroke:rgb(0,0,0);stroke-width:1" />
<line x1="227" y1="128" x2="243" y2="200" style="stroke:rgb(0,0,0);stroke-width:1" />
<line x1="243" y1="200" x2="252" y2="199" style="stroke:rgb(0,0,0);stroke-width:1" />
<line x1="262" y1="143" x2="209" y2="184" style="stroke:rgb(0,0,0);stroke-width:1" />
<line x1="209" y1="184" x2="253" y2="142" style="stroke:rgb(0,0,0);stroke-width:1" />
<line x1="253" y1="142" x2="262" y2="143" style="stroke:rgb(0,0,0);stroke-width:1" />
<line x1="218" y1="184" x2="218" y2="127" style="stroke:rgb(0,0,0);stroke-width:1" />
<line x1="218" y1="127" x2="218" y2="184" style="stroke:rgb(0,0,0);stroke-width:1" />
<line x1="218" y1="184" x2="218" y2="184" style="stroke:rgb(0,0,0);stroke-width:1" />
<line x1="243" y1="200" x2="218" y2="127" style="stroke:rgb(0,0,0);stroke-width:1" />
<line x1="218" y1="127" x2="262" y2="143" style="stroke:rgb(0,0,0);stroke-width:1" />
<line x1="262" y1="143" x2="243" y2="200" style="stroke:rgb(0,0,0);stroke-width:1" />
<line x1="247" y1="61" x2="261" y2="66" style="stroke:rgb(0,0,0);stroke-width:1" />
<line x1="261" y1="66" x2="235" y2="132" style="stroke:rgb(0,0,0);stroke-width:1" />
<line x1="235" y1="132" x2="247" y2="61" style="stroke:rgb(0,0,0);stroke-width:1" />
<line x1="247" y1="61" x2="244" y2="59" style="stroke:rgb(0,0,0);stroke-width:1" />
<line x1="244" y1="59" x2="258" y2="65" style="stroke:rgb(0,0,0);stroke-width:1" />
<line x1="258" y1="65" x2="247" y2="61" style="stroke:rgb(0,0,0);stroke-width:1" />
<line x1="232" y1="132" x2="244" y2="59" style="stroke:rgb(0,0,0);stroke-width:1" />
<line x1="244" y1="59" x2="258" y2="65" style="stroke:rgb(0,0,0);stroke-width:1" />
<line x1="258" y1="65" x2="232" y2="132" style="stroke:rgb(0,0,0);stroke-width:1" />
<line x1="261" y1="66" x2="244" y2="59" style="stroke:rgb(0,0,0);stroke-width:1" />
<line x1="244" y1="59" x2="247" y2="61" style="stroke:rgb(0,0,0);stroke-width:1" />
<line x1="247" y1="61" x2="261" y2="66" style="stroke:rgb(0,0,0);stroke-width:1" />
<line x1="261" y1="66" x2="249" y2="138" style="stroke:rgb(0,0,0);stroke-width:1" />
<line x1="249" y1="138" x2="258" y2="65" style="stroke:rgb(0,0,0);stroke-width:1" />
<line x1="258" y1="65" x2="261" y2="66" style="stroke:rgb(0,0,0);stroke-width:1" />
<line x1="246" y1="138" x2="235" y2="132" style="stroke:rgb(0,0,0);stroke-width:1" />
<line x1="235" y1="132" x2="232" y2="132" style="stroke:rgb(0,0,0);stroke-width:1" />
<line x1="232" y1="132" x2="246" y2="138" style="stroke:rgb(0,0,0);stroke-width:1" />
<line x1="249" y1="138" x2="246" y2="138" style="stroke:rgb(0,0,0);stroke-width:1" />
<line x1="246" y1="138" x2="246" y2="138" style="stroke:rgb(0,0,0);stroke-width:1" />
<line x1="246" y1="138" x2="249" y2="138" style="stroke:rgb(0,0,0);stroke-width:1" />
<line x1="232" y1="132" x2="235" y2="132" style="stroke:rgb(0,0,0);stroke-width:1" />
<line x1="235" y1="132" x2="249" y2="138" style="stroke:rgb(0,0,0);stroke-width:1" />
<line x1="249" y1="138" x2="232" y2="132" style="stroke:rgb(0,0,0);stroke-width:1" />
<line x1="244" y1="59" x2="261" y2="66" style="stroke:rgb(0,0,0);stroke-width:1" />
<line x1="261" y1="66" x2="232" y2="132" style="stroke:rgb(0,0,0);stroke-width:1" />
<line x1="232" y1="132" x2="244" y2="59" style="stroke:rgb(0,0,0);stroke-width:1" />
<line x1="247" y1="61" x2="258" y2="65" style="stroke:rgb(0,0,0);stroke-width:1" />
<line x1="258" y1="65" x2="249" y2="138" style="stroke:rgb(0,0,0);stroke-width:1" />
<line x1="249" y1="138" x2="247" y2="61" style="stroke:rgb(0,0,0);stroke-width:1" />
<line x1="244" y1="59" x2="246" y2="138" style="stroke:rgb(0,0,0);stroke-width:1" />
<line x1="246" y1="138" x2="249" y2="138" style="stroke:rgb(0,0,0);stroke-width:1" />
<line x1="249" y1="138" x2="244" y2="59" style="stroke:rgb(0,0,0);stroke-width:1" />
<line x1="247" y1="61" x2="235" y2="132" style="stroke:rgb(0,0,0);stroke-width:1" />
<line x1="235" y1="132" x2="246" y2="138" style="stroke:rgb(0,0,0);stroke-width:1" />
<line x1="246" y1="138" x2="247" y2="61" style="stroke:rgb(0,0,0);stroke-width:1" />
</svg>
