<svg version="1.1" xmlns:xlink="http://www.w3.org/1999/xlink" xmlns="http://www.w3.org/2000/svg" width="512" height="512">
<line x1="243" y1="285" x2="263" y2="319" style="stroke:rgb(0,0,0);stroke-width:1" />
<line x1="263" y1="319" x2="283" y2="273" style="stroke:rgb(0,0,0);stroke-width:1" />
<line x1="283" y1="273" x2="243" y2="285" style="stroke:rgb(0,0,0);stroke-width:1" />
<line x1="243" y1="285" x2="285" y2="213" style="stroke:rgb(0,0,0);stroke-width:1" />
<line x1="285" y1="213" x2="283" y2="273" style="stroke:rgb(0,0,0);stroke-width:1" />
<line x1="283" y1="273" x2="243" y2="285" style="stroke:rgb(0,0,0);stroke-width:1" />
<line x1="263" y1="319" x2="263" y2="245" style="stroke:rgb(0,0,0);stroke-width:1" />
<line x1="263" y1="245" x2="313" y2="233" style="stroke:rgb(0,0,0);stroke-width:1" />
<line x1="313" y1="233" x2="263" y2="319" style="stroke:rgb(0,0,0);stroke-width:1" />
<line x1="308" y1="303" x2="242" y2="221" style="stroke:rgb(0,0,0);stroke-width:1" />
<line x1="242" y1="221" x2="243" y2="285" style="stroke:rgb(0,0,0);stroke-width:1" />
<line x1="243" y1="285" x2="308" y2="303" style="stroke:rgb(0,0,0);stroke-width:1" />
<line x1="313" y1="233" x2="263" y2="245" style="stroke:rgb(0,0,0);stroke-width:1" />
<line x1="263" y1="245" x2="285" y2="213" style="stroke:rgb(0,0,0);stroke-width:1" />
<line x1="285" y1="213" x2="313" y2="233" style="stroke:rgb(0,0,0);stroke-width:1" />
<line x1="313" y1="233" x2="263" y2="319" style="stroke:rgb(0,0,0);stroke-width:1" />
<line x1="263" y1="319" x2="308" y2="303" style="stroke:rgb(0,0,0);stroke-width:1" />
<line x1="308" y1="303" x2="313" y2="233" style="stroke:rgb(0,0,0);stroke-width:1" />
<line x1="263" y1="245" x2="242" y2="221" style="stroke:rgb(0,0,0);stroke-width:1" />
<line x1="242" y1="221" x2="242" y2="221" style="stroke:rgb(0,0,0);stroke-width:1" />
<line x1="242" y1="221" x2="263" y2="245" style="stroke:rgb(0,0,0);stroke-width:1" />
<line x1="285" y1="213" x2="308" y2="303" style="stroke:rgb(0,0,0);stroke-width:1" />
<line x1="308" y1="303" x2="283" y2="273" style="stroke:rgb(0,0,0);stroke-width:1" />
<line x1="283" y1="273" x2="285" y2="213" style="stroke:rgb(0,0,0);stroke-width:1" />
<line x1="313" y1="233" x2="242" y2="221" style="stroke:rgb(0,0,0);stroke-width:1" />
<line x1="242" y1="221" x2="263" y2="319" style="stroke:rgb(0,0,0);stroke-width:1" />
<line x1="263" y1="319" x2="313" y2="233" style="stroke:rgb(0,0,0);stroke-width:1" />
<line x1="313" y1="233" x2="243" y2="285" style="stroke:rgb(0,0,0);stroke-width:1" />
<line x1="243" y1="285" x2="263" y2="245" style="stroke:rgb(0,0,0);stroke-width:1" />
<line x1="263" y1="245" x2="313" y2="233" style="stroke:rgb(0,0,0);stroke-width:1" />
<line x1="263" y1="319" x2="283" y2="273" style="stroke:rgb(0,0,0);stroke-width:1" />
<line x1="283" y1="273" x2="308" y2="303" style="stroke:rgb(0,0,0);stroke-width:1" />
<line x1="308" y1="303" x2="263" y2="319" style="stroke:rgb(0,0,0);stroke-width:1" />
<line x1="285" y1="213" x2="283" y2="273" style="stroke:rgb(0,0,0);stroke-width:1" />
<line x1="283" y1="273" x2="242" y2="221" style="stroke:rgb(0,0,0);stroke-width:1" />
<line x1="242" y1="221" x2="285" y2="213" style="stroke:rgb(0,0,0);stroke-width:1" />
<line x1="252" y1="352" x2="258" y2="365" style="stroke:rgb(0,0,0);stroke-width:1" />
<line x1="258" y1="365" x2="258" y2="365" style="stroke:rgb(0,0,0);stroke-width:1" />
<line x1="258" y1="365" x2="252" y2="352" style="stroke:rgb(0,0,0);stroke-width:1" />
<line x1="258" y1="305" x2="258" y2="305" style="stroke:rgb(0,0,0);stroke-width:1" />
<line x1="258" y1="305" x2="252" y2="294" style="stroke:rgb(0,0,0);stroke-width:1" />
<line x1="252" y1="294" x2="258" y2="305" style="stroke:rgb(0,0,0);stroke-width:1" />
<line x1="252" y1="294" x2="252" y2="352" style="stroke:rgb(0,0,0);stroke-width:1" />
<line x1="252" y1="352" x2="265" y2="347" style="stroke:rgb(0,0,0);stroke-width:1" />
<line x1="265" y1="347" x2="252" y2="294" style="stroke:rgb(0,0,0);stroke-width:1" />
<line x1="252" y1="352" x2="252" y2="294" style="stroke:rgb(0,0,0);stroke-width:1" />
<line x1="252" y1="294" x2="266" y2="290" style="stroke:rgb(0,0,0);stroke-width:1" />
<line x1="266" y1="290" x2="252" y2="352" style="stroke:rgb(0,0,0);stroke-width:1" />
<line x1="266" y1="290" x2="265" y2="347" style="stroke:rgb(0,0,0);stroke-width:1" />
<line x1="265" y1="347" x2="272" y2="359" style="stroke:rgb(0,0,0);stroke-width:1" />
<line x1="272" y1="359" x2="266" y2="290" style="stroke:rgb(0,0,0);stroke-width:1" />
<line x1="265" y1="347" x2="266" y2="290" style="stroke:rgb(0,0,0);stroke-width:1" />
<line x1="266" y1="290" x2="273" y2="300" style="stroke:rgb(0,0,0);stroke-width:1" />
<line x1="273" y1="300" x2="265" y2="347" style="stroke:rgb(0,0,0);stroke-width:1" />
<line x1="273" y1="300" x2="272" y2="359" style="stroke:rgb(0,0,0);stroke-width:1" />
<line x1="272" y1="359" x2="258" y2="365" style="stroke:rgb(0,0,0);stroke-width:1" />
<line x1="258" y1="365" x2="273" y2="300" style="stroke:rgb(0,0,0);stroke-width:1" />
<line x1="272" y1="359" x2="273" y2="300" style="stroke:rgb(0,0,0);stroke-width:1" />
<line x1="273" y1="300" x2="258" y2="305" style="stroke:rgb(0,0,0);stroke-width:1" />
<line x1="258" y1="305" x2="272" y2="359" style="stroke:rgb(0,0,0);stroke-width:1" />
<line x1="252" y1="352" x2="258" y2="305" style="stroke:rgb(0,0,0);stroke-width:1" />
<line x1="258" y1="305" x2="265" y2="347" style="stroke:rgb(0,0,0);stroke-width:1" />
<line x1="265" y1="347" x2="252" y2="352" style="stroke:rgb(0,0,0);stroke-width:1" />
<line x1="252" y1="294" x2="272" y2="359" style="stroke:rgb(0,0,0);stroke-width:1" />
<line x1="272" y1="359" x2="266" y2="290" style="stroke:rgb(0,0,0);stroke-width:1" />
<line x1="266" y1="290" x2="252" y2="294" style="stroke:rgb(0,0,0);stroke-width:1" />
<line x1="258" y1="365" x2="273" y2="300" style="stroke:rgb(0,0,0);stroke-width:1" />
<line x1="273" y1="300" x2="258" y2="365" style="stroke:rgb(0,0,0);stroke-width:1" />
<line x1="258" y1="365" x2="258" y2="365" style="stroke:rgb(0,0,0);stroke-width:1" />
<line x1="265" y1="347" x2="273" y2="300" style="stroke:rgb(0,0,0);stroke-width:1" />
<line x1="273" y1="300" x2="252" y2="294" style="stroke:rgb(0,0,0);stroke-width:1" />
<line x1="252" y1="294" x2="265" y2="347" style="stroke:rgb(0,0,0);stroke-width:1" />
<line x1="273" y1="343" x2="280" y2="356" style="stroke:rgb(0,0,0);stroke-width:1" />
<line x1="280" y1="356" x2="280" y2="356" style="stroke:rgb(0,0,0);stroke-width:1" />
<line x1="280" y1="356" x2="273" y2="343" style="stroke:rgb(0,0,0);stroke-width:1" />
<line x1="282" y1="297" x2="282" y2="297" style="stroke:rgb(0,0,0);stroke-width:1" />
<line x1="282" y1="297" x2="274" y2="287" style="stroke:rgb(0,0,0);stroke-width:1" />
<line x1="274" y1="287" x2="282" y2="297" style="stroke:rgb(0,0,0);stroke-width:1" />
<line x1="274" y1="287" x2="273" y2="343" style="stroke:rgb(0,0,0);stroke-width:1" />
<line x1="273" y1="343" x2="286" y2="338" style="stroke:rgb(0,0,0);stroke-width:1" />
<line x1="286" y1="338" x2="274" y2="287" style="stroke:rgb(0,0,0);stroke-width:1" />
<line x1="273" y1="343" x2="274" y2="287" style="stroke:rgb(0,0,0);stroke-width:1" />
<line x1="274" y1="287" x2="288" y2="283" style="stroke:rgb(0,0,0);stroke-width:1" />
<line x1="288" y1="283" x2="273" y2="343" style="stroke:rgb(0,0,0);stroke-width:1" />
<line x1="288" y1="283" x2="286" y2="338" style="stroke:rgb(0,0,0);stroke-width:1" />
<line x1="286" y1="338" x2="293" y2="350" style="stroke:rgb(0,0,0);stroke-width:1" />
<line x1="293" y1="350" x2="288" y2="283" style="stroke:rgb(0,0,0);stroke-width:1" />
<line x1="286" y1="338" x2="288" y2="283" style="stroke:rgb(0,0,0);stroke-width:1" />
<line x1="288" y1="283" x2="296" y2="293" style="stroke:rgb(0,0,0);stroke-width:1" />
<line x1="296" y1="293" x2="286" y2="338" style="stroke:rgb(0,0,0);stroke-width:1" />
<line x1="296" y1="293" x2="293" y2="350" style="stroke:rgb(0,0,0);stroke-width:1" />
<line x1="293" y1="350" x2="280" y2="356" style="stroke:rgb(0,0,0);stroke-width:1" />
<line x1="280" y1="356" x2="296" y2="293" style="stroke:rgb(0,0,0);stroke-width:1" />
<line x1="293" y1="350" x2="296" y2="293" style="stroke:rgb(0,0,0);stroke-width:1" />
<line x1="296" y1="293" x2="282" y2="297" style="stroke:rgb(0,0,0);stroke-width:1" />
<line x1="282" y1="297" x2="293" y2="350" style="stroke:rgb(0,0,0);stroke-width:1" />
<line x1="273" y1="343" x2="282" y2="297" style="stroke:rgb(0,0,0);stroke-width:1" />
<line x1="282" y1="297" x2="286" y2="338" style="stroke:rgb(0,0,0);stroke-width:1" />
<line x1="286" y1="338" x2="273" y2="343" style="stroke:rgb(0,0,0);stroke-width:1" />
<line x1="274" y1="287" x2="293" y2="350" style="stroke:rgb(0,0,0);stroke-width:1" />
<line x1="293" y1="350" x2="288" y2="283" style="stroke:rgb(0,0,0);stroke-width:1" />
<line x1="288" y1="283" x2="274" y2="287" style="stroke:rgb(0,0,0);stroke-width:1" />
<line x1="280" y1="356" x2="296" y2="293" style="stroke:rgb(0,0,0);stroke-width:1" />
<line x1="296" y1="293" x2="280" y2="356" style="stroke:rgb(0,0,0);stroke-width:1" />
<line x1="280" y1="356" x2="280" y2="356" style="stroke:rgb(0,0,0);stroke-width:1" />
<line x1="286" y1="338" x2="296" y2="293" style="stroke:rgb(0,0,0);stroke-width:1" />
<line x1="296" y1="293" x2="274" y2="287" style="stroke:rgb(0,0,0);stroke-width:1" />
<line x1="274" y1="287" x2="286" y2="338" style="stroke:rgb(0,0,0);stroke-width:1" />
<line x1="244" y1="230" x2="247" y2="233" style="stroke:rgb(0,0,0);stroke-width:1" />
<line x1="247" y1="233" x2="247" y2="233" style="stroke:rgb(0,0,0);stroke-width:1" />
<line x1="247" y1="233" x2="244" y2="230" style="stroke:rgb(0,0,0);stroke-width:1" />
<line x1="247" y1="228" x2="247" y2="228" style="stroke:rgb(0,0,0);stroke-width:1" />
<line x1="247" y1="228" x2="244" y2="225" style="stroke:rgb(0,0,0);stroke-width:1" />
<line x1="244" y1="225" x2="247" y2="228" style="stroke:rgb(0,0,0);stroke-width:1" />
<line x1="244" y1="225" x2="244" y2="230" style="stroke:rgb(0,0,0);stroke-width:1" />
<line x1="244" y1="230" x2="301" y2="218" style="stroke:rgb(0,0,0);stroke-width:1" />
<line x1="301" y1="218" x2="244" y2="225" style="stroke:rgb(0,0,0);stroke-width:1" />
<line x1="244" y1="230" x2="244" y2="225" style="stroke:rgb(0,0,0);stroke-width:1" />
<line x1="244" y1="225" x2="301" y2="214" style="stroke:rgb(0,0,0);stroke-width:1" />
<line x1="301" y1="214" x2="244" y2="230" style="stroke:rgb(0,0,0);stroke-width:1" />
<line x1="301" y1="214" x2="301" y2="218" style="stroke:rgb(0,0,0);stroke-width:1" />
<line x1="301" y1="218" x2="305" y2="221" style="stroke:rgb(0,0,0);stroke-width:1" />
<line x1="305" y1="221" x2="301" y2="214" style="stroke:rgb(0,0,0);stroke-width:1" />
<line x1="301" y1="218" x2="301" y2="214" style="stroke:rgb(0,0,0);stroke-width:1" />
<line x1="301" y1="214" x2="305" y2="216" style="stroke:rgb(0,0,0);stroke-width:1" />
<line x1="305" y1="216" x2="301" y2="218" style="stroke:rgb(0,0,0);stroke-width:1" />
<line x1="305" y1="216" x2="305" y2="221" style="stroke:rgb(0,0,0);stroke-width:1" />
<line x1="305" y1="221" x2="247" y2="233" style="stroke:rgb(0,0,0);stroke-width:1" />
<line x1="247" y1="233" x2="305" y2="216" style="stroke:rgb(0,0,0);stroke-width:1" />
<line x1="305" y1="221" x2="305" y2="216" style="stroke:rgb(0,0,0);stroke-width:1" />
<line x1="305" y1="216" x2="247" y2="228" style="stroke:rgb(0,0,0);stroke-width:1" />
<line x1="247" y1="228" x2="305" y2="221" style="stroke:rgb(0,0,0);stroke-width:1" />
<line x1="244" y1="230" x2="247" y2="228" style="stroke:rgb(0,0,0);stroke-width:1" />
<line x1="247" y1="228" x2="301" y2="218" style="stroke:rgb(0,0,0);stroke-width:1" />
<line x1="301" y1="218" x2="244" y2="230" style="stroke:rgb(0,0,0);stroke-width:1" />
<line x1="244" y1="225" x2="305" y2="221" style="stroke:rgb(0,0,0);stroke-width:1" />
<line x1="305" y1="221" x2="301" y2="214" style="stroke:rgb(0,0,0);stroke-width:1" />
<line x1="301" y1="214" x2="244" y2="225" style="stroke:rgb(0,0,0);stroke-width:1" />
<line x1="247" y1="233" x2="305" y2="216" style="stroke:rgb(0,0,0);stroke-width:1" />
<line x1="305" y1="216" x2="247" y2="233" style="stroke:rgb(0,0,0);stroke-width:1" />
<line x1="247" y1="233" x2="247" y2="233" style="stroke:rgb(0,0,0);stroke-width:1" />
<line x1="301" y1="218" x2="305" y2="216" style="stroke:rgb(0,0,0);stroke-width:1" />
<line x1="305" y1="216" x2="244" y2="225" style="stroke:rgb(0,0,0);stroke-width:1" />
<line x1="244" y1="225" x2="301" y2="218" style="stroke:rgb(0,0,0);stroke-width:1" />
<line x1="291" y1="262" x2="300" y2="271" style="stroke:rgb(0,0,0);stroke-width:1" />
<line x1="300" y1="271" x2="300" y2="271" style="stroke:rgb(0,0,0);stroke-width:1" />
<line x1="300" y1="271" x2="291" y2="262" style="stroke:rgb(0,0,0);stroke-width:1" />
<line x1="301" y1="249" x2="301" y2="249" style="stroke:rgb(0,0,0);stroke-width:1" />
<line x1="301" y1="249" x2="292" y2="241" style="stroke:rgb(0,0,0);stroke-width:1" />
<line x1="292" y1="241" x2="301" y2="249" style="stroke:rgb(0,0,0);stroke-width:1" />
<line x1="292" y1="241" x2="291" y2="262" style="stroke:rgb(0,0,0);stroke-width:1" />
<line x1="291" y1="262" x2="298" y2="260" style="stroke:rgb(0,0,0);stroke-width:1" />
<line x1="298" y1="260" x2="292" y2="241" style="stroke:rgb(0,0,0);stroke-width:1" />
<line x1="291" y1="262" x2="292" y2="241" style="stroke:rgb(0,0,0);stroke-width:1" />
<line x1="292" y1="241" x2="299" y2="239" style="stroke:rgb(0,0,0);stroke-width:1" />
<line x1="299" y1="239" x2="291" y2="262" style="stroke:rgb(0,0,0);stroke-width:1" />
<line x1="299" y1="239" x2="298" y2="260" style="stroke:rgb(0,0,0);stroke-width:1" />
<line x1="298" y1="260" x2="307" y2="269" style="stroke:rgb(0,0,0);stroke-width:1" />
<line x1="307" y1="269" x2="299" y2="239" style="stroke:rgb(0,0,0);stroke-width:1" />
<line x1="298" y1="260" x2="299" y2="239" style="stroke:rgb(0,0,0);stroke-width:1" />
<line x1="299" y1="239" x2="308" y2="247" style="stroke:rgb(0,0,0);stroke-width:1" />
<line x1="308" y1="247" x2="298" y2="260" style="stroke:rgb(0,0,0);stroke-width:1" />
<line x1="308" y1="247" x2="307" y2="269" style="stroke:rgb(0,0,0);stroke-width:1" />
<line x1="307" y1="269" x2="300" y2="271" style="stroke:rgb(0,0,0);stroke-width:1" />
<line x1="300" y1="271" x2="308" y2="247" style="stroke:rgb(0,0,0);stroke-width:1" />
<line x1="307" y1="269" x2="308" y2="247" style="stroke:rgb(0,0,0);stroke-width:1" />
<line x1="308" y1="247" x2="301" y2="249" style="stroke:rgb(0,0,0);stroke-width:1" />
<line x1="301" y1="249" x2="307" y2="269" style="stroke:rgb(0,0,0);stroke-width:1" />
<line x1="291" y1="262" x2="301" y2="249" style="stroke:rgb(0,0,0);stroke-width:1" />
<line x1="301" y1="249" x2="298" y2="260" style="stroke:rgb(0,0,0);stroke-width:1" />
<line x1="298" y1="260" x2="291" y2="262" style="stroke:rgb(0,0,0);stroke-width:1" />
<line x1="292" y1="241" x2="307" y2="269" style="stroke:rgb(0,0,0);stroke-width:1" />
<line x1="307" y1="269" x2="299" y2="239" style="stroke:rgb(0,0,0);stroke-width:1" />
<line x1="299" y1="239" x2="292" y2="241" style="stroke:rgb(0,0,0);stroke-width:1" />
<line x1="300" y1="271" x2="308" y2="247" style="stroke:rgb(0,0,0);stroke-width:1" />
<line x1="308" y1="247" x2="300" y2="271" style="stroke:rgb(0,0,0);stroke-width:1" />
<line x1="300" y1="271" x2="300" y2="271" style="stroke:rgb(0,0,0);stroke-width:1" />
<line x1="298" y1="260" x2="308" y2="247" style="stroke:rgb(0,0,0);stroke-width:1" />
<line x1="308" y1="247" x2="292" y2="241" style="stroke:rgb(0,0,0);stroke-width:1" />
<line x1="292" y1="241" x2="298" y2="260" style="stroke:rgb(0,0,0);stroke-width:1" />
<line x1="307" y1="269" x2="308" y2="247" style="stroke:rgb(0,0,0);stroke-width:1" />
<line x1="308" y1="247" x2="299" y2="239" style="stroke:rgb(0,0,0);stroke-width:1" />
<line x1="299" y1="239" x2="307" y2="269" style="stroke:rgb(0,0,0);stroke-width:1" />
<line x1="301" y1="214" x2="305" y2="216" style="stroke:rgb(0,0,0);stroke-width:1" />
<line x1="305" y1="216" x2="300" y2="242" style="stroke:rgb(0,0,0);stroke-width:1" />
<line x1="300" y1="242" x2="301" y2="214" style="stroke:rgb(0,0,0);stroke-width:1" />
<line x1="301" y1="214" x2="298" y2="214" style="stroke:rgb(0,0,0);stroke-width:1" />
<line x1="298" y1="214" x2="302" y2="217" style="stroke:rgb(0,0,0);stroke-width:1" />
<line x1="302" y1="217" x2="301" y2="214" style="stroke:rgb(0,0,0);stroke-width:1" />
<line x1="297" y1="243" x2="298" y2="214" style="stroke:rgb(0,0,0);stroke-width:1" />
<line x1="298" y1="214" x2="302" y2="217" style="stroke:rgb(0,0,0);stroke-width:1" />
<line x1="302" y1="217" x2="297" y2="243" style="stroke:rgb(0,0,0);stroke-width:1" />
<line x1="305" y1="216" x2="298" y2="214" style="stroke:rgb(0,0,0);stroke-width:1" />
<line x1="298" y1="214" x2="301" y2="214" style="stroke:rgb(0,0,0);stroke-width:1" />
<line x1="301" y1="214" x2="305" y2="216" style="stroke:rgb(0,0,0);stroke-width:1" />
<line x1="305" y1="216" x2="303" y2="245" style="stroke:rgb(0,0,0);stroke-width:1" />
<line x1="303" y1="245" x2="302" y2="217" style="stroke:rgb(0,0,0);stroke-width:1" />
<line x1="302" y1="217" x2="305" y2="216" style="stroke:rgb(0,0,0);stroke-width:1" />
<line x1="301" y1="246" x2="300" y2="242" style="stroke:rgb(0,0,0);stroke-width:1" />
<line x1="300" y1="242" x2="297" y2="243" style="stroke:rgb(0,0,0);stroke-width:1" />
<line x1="297" y1="243" x2="301" y2="246" style="stroke:rgb(0,0,0);stroke-width:1" />
<line x1="303" y1="245" x2="301" y2="246" style="stroke:rgb(0,0,0);stroke-width:1" />
<line x1="301" y1="246" x2="301" y2="246" style="stroke:rgb(0,0,0);stroke-width:1" />
<line x1="301" y1="246" x2="303" y2="245" style="stroke:rgb(0,0,0);stroke-width:1" />
<line x1="297" y1="243" x2="300" y2="242" style="stroke:rgb(0,0,0);stroke-width:1" />
<line x1="300" y1="242" x2="303" y2="245" style="stroke:rgb(0,0,0);stroke-width:1" />
<line x1="303" y1="245" x2="297" y2="243" style="stroke:rgb(0,0,0);stroke-width:1" />
<line x1="298" y1="214" x2="305" y2="216" style="stroke:rgb(0,0,0);stroke-width:1" />
<line x1="305" y1="216" x2="297" y2="243" style="stroke:rgb(0,0,0);stroke-width:1" />
<line x1="297" y1="243" x2="298" y2="214" style="stroke:rgb(0,0,0);stroke-width:1" />
<line x1="301" y1="214" x2="302" y2="217" style="stroke:rgb(0,0,0);stroke-width:1" />
<line x1="302" y1="217" x2="303" y2="245" style="stroke:rgb(0,0,0);stroke-width:1" />
<line x1="303" y1="245" x2="301" y2="214" style="stroke:rgb(0,0,0);stroke-width:1" />
<line x1="298" y1="214" x2="301" y2="246" style="stroke:rgb(0,0,0);stroke-width:1" />
<line x1="301" y1="246" x2="303" y2="245" style="stroke:rgb(0,0,0);stroke-width:1" />
<line x1="303" y1="245" x2="298" y2="214" style="stroke:rgb(0,0,0);stroke-width:1" />
<line x1="301" y1="214" x2="300" y2="242" style="stroke:rgb(0,0,0);stroke-width:1" />
<line x1="300" y1="242" x2="301" y2="246" style="stroke:rgb(0,0,0);stroke-width:1" />
<line x1="301" y1="246" x2="301" y2="214" style="stroke:rgb(0,0,0);stroke-width:1" />
<line x1="241" y1="276" x2="247" y2="287" style="stroke:rgb(0,0,0);stroke-width:1" />
<line x1="247" y1="287" x2="247" y2="287" style="stroke:rgb(0,0,0);stroke-width:1" />
<line x1="247" y1="287" x2="241" y2="276" style="stroke:rgb(0,0,0);stroke-width:1" />
<line x1="247" y1="263" x2="247" y2="263" style="stroke:rgb(0,0,0);stroke-width:1" />
<line x1="247" y1="263" x2="240" y2="253" style="stroke:rgb(0,0,0);stroke-width:1" />
<line x1="240" y1="253" x2="247" y2="263" style="stroke:rgb(0,0,0);stroke-width:1" />
<line x1="240" y1="253" x2="241" y2="276" style="stroke:rgb(0,0,0);stroke-width:1" />
<line x1="241" y1="276" x2="248" y2="274" style="stroke:rgb(0,0,0);stroke-width:1" />
<line x1="248" y1="274" x2="240" y2="253" style="stroke:rgb(0,0,0);stroke-width:1" />
<line x1="241" y1="276" x2="240" y2="253" style="stroke:rgb(0,0,0);stroke-width:1" />
<line x1="240" y1="253" x2="248" y2="252" style="stroke:rgb(0,0,0);stroke-width:1" />
<line x1="248" y1="252" x2="241" y2="276" style="stroke:rgb(0,0,0);stroke-width:1" />
<line x1="248" y1="252" x2="248" y2="274" style="stroke:rgb(0,0,0);stroke-width:1" />
<line x1="248" y1="274" x2="255" y2="284" style="stroke:rgb(0,0,0);stroke-width:1" />
<line x1="255" y1="284" x2="248" y2="252" style="stroke:rgb(0,0,0);stroke-width:1" />
<line x1="248" y1="274" x2="248" y2="252" style="stroke:rgb(0,0,0);stroke-width:1" />
<line x1="248" y1="252" x2="255" y2="261" style="stroke:rgb(0,0,0);stroke-width:1" />
<line x1="255" y1="261" x2="248" y2="274" style="stroke:rgb(0,0,0);stroke-width:1" />
<line x1="255" y1="261" x2="255" y2="284" style="stroke:rgb(0,0,0);stroke-width:1" />
<line x1="255" y1="284" x2="247" y2="287" style="stroke:rgb(0,0,0);stroke-width:1" />
<line x1="247" y1="287" x2="255" y2="261" style="stroke:rgb(0,0,0);stroke-width:1" />
<line x1="255" y1="284" x2="255" y2="261" style="stroke:rgb(0,0,0);stroke-width:1" />
<line x1="255" y1="261" x2="247" y2="263" style="stroke:rgb(0,0,0);stroke-width:1" />
<line x1="247" y1="263" x2="255" y2="284" style="stroke:rgb(0,0,0);stroke-width:1" />
<line x1="241" y1="276" x2="247" y2="263" style="stroke:rgb(0,0,0);stroke-width:1" />
<line x1="247" y1="263" x2="248" y2="274" style="stroke:rgb(0,0,0);stroke-width:1" />
<line x1="248" y1="274" x2="241" y2="276" style="stroke:rgb(0,0,0);stroke-width:1" />
<line x1="240" y1="253" x2="255" y2="284" style="stroke:rgb(0,0,0);stroke-width:1" />
<line x1="255" y1="284" x2="248" y2="252" style="stroke:rgb(0,0,0);stroke-width:1" />
<line x1="248" y1="252" x2="240" y2="253" style="stroke:rgb(0,0,0);stroke-width:1" />
<line x1="247" y1="287" x2="255" y2="261" style="stroke:rgb(0,0,0);stroke-width:1" />
<line x1="255" y1="261" x2="247" y2="287" style="stroke:rgb(0,0,0);stroke-width:1" />
<line x1="247" y1="287" x2="247" y2="287" style="stroke:rgb(0,0,0);stroke-width:1" />
<line x1="248" y1="274" x2="255" y2="261" style="stroke:rgb(0,0,0);stroke-width:1" />
<line x1="255" y1="261" x2="240" y2="253" style="stroke:rgb(0,0,0);stroke-width:1" />
<line x1="240" y1="253" x2="248" y2="274" style="stroke:rgb(0,0,0);stroke-width:1" />
<line x1="247" y1="263" x2="241" y2="276" style="stroke:rgb(0,0,0);stroke-width:1" />
<line x1="241" y1="276" x2="255" y2="261" style="stroke:rgb(0,0,0);stroke-width:1" />
<line x1="255" y1="261" x2="247" y2="263" style="stroke:rgb(0,0,0);stroke-width:1" />
<line x1="247" y1="228" x2="244" y2="225" style="stroke:rgb(0,0,0);stroke-width:1" />
<line x1="244" y1="225" x2="247" y2="259" style="stroke:rgb(0,0,0);stroke-width:1" />
<line x1="247" y1="259" x2="247" y2="228" style="stroke:rgb(0,0,0);stroke-width:1" />
<line x1="247" y1="228" x2="250" y2="228" style="stroke:rgb(0,0,0);stroke-width:1" />
<line x1="250" y1="228" x2="247" y2="224" style="stroke:rgb(0,0,0);stroke-width:1" />
<line x1="247" y1="224" x2="247" y2="228" style="stroke:rgb(0,0,0);stroke-width:1" />
<line x1="250" y1="259" x2="250" y2="228" style="stroke:rgb(0,0,0);stroke-width:1" />
<line x1="250" y1="228" x2="247" y2="224" style="stroke:rgb(0,0,0);stroke-width:1" />
<line x1="247" y1="224" x2="250" y2="259" style="stroke:rgb(0,0,0);stroke-width:1" />
<line x1="244" y1="225" x2="250" y2="228" style="stroke:rgb(0,0,0);stroke-width:1" />
<line x1="250" y1="228" x2="247" y2="228" style="stroke:rgb(0,0,0);stroke-width:1" />
<line x1="247" y1="228" x2="244" y2="225" style="stroke:rgb(0,0,0);stroke-width:1" />
<line x1="244" y1="225" x2="244" y2="256" style="stroke:rgb(0,0,0);stroke-width:1" />
<line x1="244" y1="256" x2="247" y2="224" style="stroke:rgb(0,0,0);stroke-width:1" />
<line x1="247" y1="224" x2="244" y2="225" style="stroke:rgb(0,0,0);stroke-width:1" />
<line x1="247" y1="255" x2="247" y2="259" style="stroke:rgb(0,0,0);stroke-width:1" />
<line x1="247" y1="259" x2="250" y2="259" style="stroke:rgb(0,0,0);stroke-width:1" />
<line x1="250" y1="259" x2="247" y2="255" style="stroke:rgb(0,0,0);stroke-width:1" />
<line x1="244" y1="256" x2="247" y2="255" style="stroke:rgb(0,0,0);stroke-width:1" />
<line x1="247" y1="255" x2="247" y2="255" style="stroke:rgb(0,0,0);stroke-width:1" />
<line x1="247" y1="255" x2="244" y2="256" style="stroke:rgb(0,0,0);stroke-width:1" />
<line x1="250" y1="259" x2="247" y2="259" style="stroke:rgb(0,0,0);stroke-width:1" />
<line x1="247" y1="259" x2="244" y2="256" style="stroke:rgb(0,0,0);stroke-width:1" />
<line x1="244" y1="256" x2="250" y2="259" style="stroke:rgb(0,0,0);stroke-width:1" />
<line x1="250" y1="228" x2="244" y2="225" style="stroke:rgb(0,0,0);stroke-width:1" />
<line x1="244" y1="225" x2="250" y2="259" style="stroke:rgb(0,0,0);stroke-width:1" />
<line x1="250" y1="259" x2="250" y2="228" style="stroke:rgb(0,0,0);stroke-width:1" />
<line x1="247" y1="228" x2="247" y2="224" style="stroke:rgb(0,0,0);stroke-width:1" />
<line x1="247" y1="224" x2="244" y2="256" style="stroke:rgb(0,0,0);stroke-width:1" />
<line x1="244" y1="256" x2="247" y2="228" style="stroke:rgb(0,0,0);stroke-width:1" />
<line x1="250" y1="228" x2="247" y2="255" style="stroke:rgb(0,0,0);stroke-width:1" />
<line x1="247" y1="255" x2="244" y2="256" style="stroke:rgb(0,0,0);stroke-width:1" />
<line x1="244" y1="256" x2="250" y2="228" style="stroke:rgb(0,0,0);stroke-width:1" />
<line x1="247" y1="228" x2="247" y2="259" style="stroke:rgb(0,0,0);stroke-width:1" />
<line x1="247" y1="259" x2="247" y2="255" style="stroke:rgb(0,0,0);stroke-width:1" />
<line x1="247" y1="255" x2="247" y2="228" style="stroke:rgb(0,0,0);stroke-width:1" />
</svg>
