<svg version="1.1" xmlns:xlink="http://www.w3.org/1999/xlink" xmlns="http://www.w3.org/2000/svg" width="512" height="512">
<line x1="219" y1="461" x2="393" y2="290" style="stroke:rgb(0,0,0);stroke-width:1" />
<line x1="393" y1="290" x2="49" y2="290" style="stroke:rgb(0,0,0);stroke-width:1" />
<line x1="49" y1="290" x2="219" y2="461" style="stroke:rgb(0,0,0);stroke-width:1" />
<line x1="219" y1="461" x2="34" y2="-2" style="stroke:rgb(255,0,0);stroke-width:1" />
<line x1="34" y1="-2" x2="49" y2="290" style="stroke:rgb(255,0,0);stroke-width:1" />
<line x1="49" y1="290" x2="219" y2="461" style="stroke:rgb(255,0,0);stroke-width:1" />
<line x1="393" y1="290" x2="403" y2="-2" style="stroke:rgb(255,0,0);stroke-width:1" />
<line x1="403" y1="-2" x2="221" y2="-147" style="stroke:rgb(255,0,0);stroke-width:1" />
<line x1="221" y1="-147" x2="393" y2="290" style="stroke:rgb(255,0,0);stroke-width:1" />
<line x1="223" y1="139" x2="216" y2="160" style="stroke:rgb(0,0,0);stroke-width:1" />
<line x1="216" y1="160" x2="219" y2="461" style="stroke:rgb(0,0,0);stroke-width:1" />
<line x1="219" y1="461" x2="223" y2="139" style="stroke:rgb(0,0,0);stroke-width:1" />
<line x1="221" y1="-147" x2="403" y2="-2" style="stroke:rgb(255,0,0);stroke-width:1" />
<line x1="403" y1="-2" x2="34" y2="-2" style="stroke:rgb(255,0,0);stroke-width:1" />
<line x1="34" y1="-2" x2="221" y2="-147" style="stroke:rgb(255,0,0);stroke-width:1" />
<line x1="221" y1="-147" x2="393" y2="290" style="stroke:rgb(255,0,0);stroke-width:1" />
<line x1="393" y1="290" x2="223" y2="139" style="stroke:rgb(255,0,0);stroke-width:1" />
<line x1="223" y1="139" x2="221" y2="-147" style="stroke:rgb(255,0,0);stroke-width:1" />
<line x1="403" y1="-2" x2="216" y2="160" style="stroke:rgb(255,0,0);stroke-width:1" />
<line x1="216" y1="160" x2="216" y2="160" style="stroke:rgb(255,0,0);stroke-width:1" />
<line x1="216" y1="160" x2="403" y2="-2" style="stroke:rgb(255,0,0);stroke-width:1" />
<line x1="34" y1="-2" x2="223" y2="139" style="stroke:rgb(255,0,0);stroke-width:1" />
<line x1="223" y1="139" x2="49" y2="290" style="stroke:rgb(255,0,0);stroke-width:1" />
<line x1="49" y1="290" x2="34" y2="-2" style="stroke:rgb(255,0,0);stroke-width:1" />
<line x1="221" y1="-147" x2="216" y2="160" style="stroke:rgb(255,0,0);stroke-width:1" />
<line x1="216" y1="160" x2="393" y2="290" style="stroke:rgb(255,0,0);stroke-width:1" />
<line x1="393" y1="290" x2="221" y2="-147" style="stroke:rgb(255,0,0);stroke-width:1" />
<line x1="221" y1="-147" x2="219" y2="461" style="stroke:rgb(255,0,0);stroke-width:1" />
<line x1="219" y1="461" x2="403" y2="-2" style="stroke:rgb(255,0,0);stroke-width:1" />
<line x1="403" y1="-2" x2="221" y2="-147" style="stroke:rgb(255,0,0);stroke-width:1" />
<line x1="393" y1="290" x2="49" y2="290" style="stroke:rgb(0,0,0);stroke-width:1" />
<line x1="49" y1="290" x2="223" y2="139" style="stroke:rgb(0,0,0);stroke-width:1" />
<line x1="223" y1="139" x2="393" y2="290" style="stroke:rgb(0,0,0);stroke-width:1" />
<line x1="34" y1="-2" x2="49" y2="290" style="stroke:rgb(255,0,0);stroke-width:1" />
<line x1="49" y1="290" x2="216" y2="160" style="stroke:rgb(255,0,0);stroke-width:1" />
<line x1="216" y1="160" x2="34" y2="-2" style="stroke:rgb(255,0,0);stroke-width:1" />
<line x1="267" y1="649" x2="321" y2="592" style="stroke:rgb(255,0,0);stroke-width:1" />
<line x1="321" y1="592" x2="321" y2="592" style="stroke:rgb(255,0,0);stroke-width:1" />
<line x1="321" y1="592" x2="267" y2="649" style="stroke:rgb(255,0,0);stroke-width:1" />
<line x1="326" y1="334" x2="326" y2="334" style="stroke:rgb(0,0,0);stroke-width:1" />
<line x1="326" y1="334" x2="267" y2="390" style="stroke:rgb(0,0,0);stroke-width:1" />
<line x1="267" y1="390" x2="326" y2="334" style="stroke:rgb(0,0,0);stroke-width:1" />
<line x1="267" y1="390" x2="267" y2="649" style="stroke:rgb(255,0,0);stroke-width:1" />
<line x1="267" y1="649" x2="212" y2="592" style="stroke:rgb(255,0,0);stroke-width:1" />
<line x1="212" y1="592" x2="267" y2="390" style="stroke:rgb(255,0,0);stroke-width:1" />
<line x1="267" y1="649" x2="267" y2="390" style="stroke:rgb(255,0,0);stroke-width:1" />
<line x1="267" y1="390" x2="209" y2="334" style="stroke:rgb(255,0,0);stroke-width:1" />
<line x1="209" y1="334" x2="267" y2="649" style="stroke:rgb(255,0,0);stroke-width:1" />
<line x1="209" y1="334" x2="212" y2="592" style="stroke:rgb(255,0,0);stroke-width:1" />
<line x1="212" y1="592" x2="266" y2="536" style="stroke:rgb(255,0,0);stroke-width:1" />
<line x1="266" y1="536" x2="209" y2="334" style="stroke:rgb(255,0,0);stroke-width:1" />
<line x1="212" y1="592" x2="209" y2="334" style="stroke:rgb(255,0,0);stroke-width:1" />
<line x1="209" y1="334" x2="267" y2="280" style="stroke:rgb(255,0,0);stroke-width:1" />
<line x1="267" y1="280" x2="212" y2="592" style="stroke:rgb(255,0,0);stroke-width:1" />
<line x1="267" y1="280" x2="266" y2="536" style="stroke:rgb(255,0,0);stroke-width:1" />
<line x1="266" y1="536" x2="321" y2="592" style="stroke:rgb(255,0,0);stroke-width:1" />
<line x1="321" y1="592" x2="267" y2="280" style="stroke:rgb(255,0,0);stroke-width:1" />
<line x1="266" y1="536" x2="267" y2="280" style="stroke:rgb(255,0,0);stroke-width:1" />
<line x1="267" y1="280" x2="326" y2="334" style="stroke:rgb(255,0,0);stroke-width:1" />
<line x1="326" y1="334" x2="266" y2="536" style="stroke:rgb(255,0,0);stroke-width:1" />
<line x1="267" y1="649" x2="326" y2="334" style="stroke:rgb(255,0,0);stroke-width:1" />
<line x1="326" y1="334" x2="212" y2="592" style="stroke:rgb(255,0,0);stroke-width:1" />
<line x1="212" y1="592" x2="267" y2="649" style="stroke:rgb(255,0,0);stroke-width:1" />
<line x1="267" y1="390" x2="266" y2="536" style="stroke:rgb(255,0,0);stroke-width:1" />
<line x1="266" y1="536" x2="209" y2="334" style="stroke:rgb(255,0,0);stroke-width:1" />
<line x1="209" y1="334" x2="267" y2="390" style="stroke:rgb(255,0,0);stroke-width:1" />
<line x1="321" y1="592" x2="267" y2="280" style="stroke:rgb(255,0,0);stroke-width:1" />
<line x1="267" y1="280" x2="321" y2="592" style="stroke:rgb(255,0,0);stroke-width:1" />
<line x1="321" y1="592" x2="321" y2="592" style="stroke:rgb(255,0,0);stroke-width:1" />
<line x1="212" y1="592" x2="267" y2="280" style="stroke:rgb(255,0,0);stroke-width:1" />
<line x1="267" y1="280" x2="267" y2="390" style="stroke:rgb(255,0,0);stroke-width:1" />
<line x1="267" y1="390" x2="212" y2="592" style="stroke:rgb(255,0,0);stroke-width:1" />
<line x1="180" y1="558" x2="234" y2="504" style="stroke:rgb(255,0,0);stroke-width:1" />
<line x1="234" y1="504" x2="234" y2="504" style="stroke:rgb(255,0,0);stroke-width:1" />
<line x1="234" y1="504" x2="180" y2="558" style="stroke:rgb(255,0,0);stroke-width:1" />
<line x1="233" y1="248" x2="233" y2="248" style="stroke:rgb(0,0,0);stroke-width:1" />
<line x1="233" y1="248" x2="175" y2="301" style="stroke:rgb(0,0,0);stroke-width:1" />
<line x1="175" y1="301" x2="233" y2="248" style="stroke:rgb(0,0,0);stroke-width:1" />
<line x1="175" y1="301" x2="180" y2="558" style="stroke:rgb(255,0,0);stroke-width:1" />
<line x1="180" y1="558" x2="128" y2="504" style="stroke:rgb(255,0,0);stroke-width:1" />
<line x1="128" y1="504" x2="175" y2="301" style="stroke:rgb(255,0,0);stroke-width:1" />
<line x1="180" y1="558" x2="175" y2="301" style="stroke:rgb(255,0,0);stroke-width:1" />
<line x1="175" y1="301" x2="120" y2="248" style="stroke:rgb(255,0,0);stroke-width:1" />
<line x1="120" y1="248" x2="180" y2="558" style="stroke:rgb(255,0,0);stroke-width:1" />
<line x1="120" y1="248" x2="128" y2="504" style="stroke:rgb(0,0,0);stroke-width:1" />
<line x1="128" y1="504" x2="183" y2="452" style="stroke:rgb(0,0,0);stroke-width:1" />
<line x1="183" y1="452" x2="120" y2="248" style="stroke:rgb(0,0,0);stroke-width:1" />
<line x1="128" y1="504" x2="120" y2="248" style="stroke:rgb(0,0,0);stroke-width:1" />
<line x1="120" y1="248" x2="178" y2="197" style="stroke:rgb(0,0,0);stroke-width:1" />
<line x1="178" y1="197" x2="128" y2="504" style="stroke:rgb(0,0,0);stroke-width:1" />
<line x1="178" y1="197" x2="183" y2="452" style="stroke:rgb(0,0,0);stroke-width:1" />
<line x1="183" y1="452" x2="234" y2="504" style="stroke:rgb(0,0,0);stroke-width:1" />
<line x1="234" y1="504" x2="178" y2="197" style="stroke:rgb(0,0,0);stroke-width:1" />
<line x1="183" y1="452" x2="178" y2="197" style="stroke:rgb(0,0,0);stroke-width:1" />
<line x1="178" y1="197" x2="233" y2="248" style="stroke:rgb(0,0,0);stroke-width:1" />
<line x1="233" y1="248" x2="183" y2="452" style="stroke:rgb(0,0,0);stroke-width:1" />
<line x1="180" y1="558" x2="233" y2="248" style="stroke:rgb(255,0,0);stroke-width:1" />
<line x1="233" y1="248" x2="128" y2="504" style="stroke:rgb(255,0,0);stroke-width:1" />
<line x1="128" y1="504" x2="180" y2="558" style="stroke:rgb(255,0,0);stroke-width:1" />
<line x1="175" y1="301" x2="183" y2="452" style="stroke:rgb(0,0,0);stroke-width:1" />
<line x1="183" y1="452" x2="120" y2="248" style="stroke:rgb(0,0,0);stroke-width:1" />
<line x1="120" y1="248" x2="175" y2="301" style="stroke:rgb(0,0,0);stroke-width:1" />
<line x1="234" y1="504" x2="178" y2="197" style="stroke:rgb(0,0,0);stroke-width:1" />
<line x1="178" y1="197" x2="234" y2="504" style="stroke:rgb(0,0,0);stroke-width:1" />
<line x1="234" y1="504" x2="234" y2="504" style="stroke:rgb(0,0,0);stroke-width:1" />
<line x1="128" y1="504" x2="178" y2="197" style="stroke:rgb(0,0,0);stroke-width:1" />
<line x1="178" y1="197" x2="175" y2="301" style="stroke:rgb(0,0,0);stroke-width:1" />
<line x1="175" y1="301" x2="128" y2="504" style="stroke:rgb(0,0,0);stroke-width:1" />
<line x1="325" y1="102" x2="350" y2="80" style="stroke:rgb(0,0,0);stroke-width:1" />
<line x1="350" y1="80" x2="350" y2="80" style="stroke:rgb(0,0,0);stroke-width:1" />
<line x1="350" y1="80" x2="325" y2="102" style="stroke:rgb(0,0,0);stroke-width:1" />
<line x1="350" y1="59" x2="350" y2="59" style="stroke:rgb(0,0,0);stroke-width:1" />
<line x1="350" y1="59" x2="325" y2="81" style="stroke:rgb(0,0,0);stroke-width:1" />
<line x1="325" y1="81" x2="350" y2="59" style="stroke:rgb(0,0,0);stroke-width:1" />
<line x1="325" y1="81" x2="325" y2="102" style="stroke:rgb(255,0,0);stroke-width:1" />
<line x1="325" y1="102" x2="96" y2="-90" style="stroke:rgb(255,0,0);stroke-width:1" />
<line x1="96" y1="-90" x2="325" y2="81" style="stroke:rgb(255,0,0);stroke-width:1" />
<line x1="325" y1="102" x2="325" y2="81" style="stroke:rgb(255,0,0);stroke-width:1" />
<line x1="325" y1="81" x2="95" y2="-111" style="stroke:rgb(255,0,0);stroke-width:1" />
<line x1="95" y1="-111" x2="325" y2="102" style="stroke:rgb(255,0,0);stroke-width:1" />
<line x1="95" y1="-111" x2="96" y2="-90" style="stroke:rgb(255,0,0);stroke-width:1" />
<line x1="96" y1="-90" x2="121" y2="-109" style="stroke:rgb(255,0,0);stroke-width:1" />
<line x1="121" y1="-109" x2="95" y2="-111" style="stroke:rgb(255,0,0);stroke-width:1" />
<line x1="96" y1="-90" x2="95" y2="-111" style="stroke:rgb(255,0,0);stroke-width:1" />
<line x1="95" y1="-111" x2="120" y2="-130" style="stroke:rgb(255,0,0);stroke-width:1" />
<line x1="120" y1="-130" x2="96" y2="-90" style="stroke:rgb(255,0,0);stroke-width:1" />
<line x1="120" y1="-130" x2="121" y2="-109" style="stroke:rgb(255,0,0);stroke-width:1" />
<line x1="121" y1="-109" x2="350" y2="80" style="stroke:rgb(255,0,0);stroke-width:1" />
<line x1="350" y1="80" x2="120" y2="-130" style="stroke:rgb(255,0,0);stroke-width:1" />
<line x1="121" y1="-109" x2="120" y2="-130" style="stroke:rgb(255,0,0);stroke-width:1" />
<line x1="120" y1="-130" x2="350" y2="59" style="stroke:rgb(255,0,0);stroke-width:1" />
<line x1="350" y1="59" x2="121" y2="-109" style="stroke:rgb(255,0,0);stroke-width:1" />
<line x1="325" y1="102" x2="350" y2="59" style="stroke:rgb(255,0,0);stroke-width:1" />
<line x1="350" y1="59" x2="96" y2="-90" style="stroke:rgb(255,0,0);stroke-width:1" />
<line x1="96" y1="-90" x2="325" y2="102" style="stroke:rgb(255,0,0);stroke-width:1" />
<line x1="325" y1="81" x2="121" y2="-109" style="stroke:rgb(255,0,0);stroke-width:1" />
<line x1="121" y1="-109" x2="95" y2="-111" style="stroke:rgb(255,0,0);stroke-width:1" />
<line x1="95" y1="-111" x2="325" y2="81" style="stroke:rgb(255,0,0);stroke-width:1" />
<line x1="350" y1="80" x2="120" y2="-130" style="stroke:rgb(255,0,0);stroke-width:1" />
<line x1="120" y1="-130" x2="350" y2="80" style="stroke:rgb(255,0,0);stroke-width:1" />
<line x1="350" y1="80" x2="350" y2="80" style="stroke:rgb(255,0,0);stroke-width:1" />
<line x1="96" y1="-90" x2="120" y2="-130" style="stroke:rgb(255,0,0);stroke-width:1" />
<line x1="120" y1="-130" x2="325" y2="81" style="stroke:rgb(255,0,0);stroke-width:1" />
<line x1="325" y1="81" x2="96" y2="-90" style="stroke:rgb(255,0,0);stroke-width:1" />
<line x1="106" y1="145" x2="165" y2="95" style="stroke:rgb(0,0,0);stroke-width:1" />
<line x1="165" y1="95" x2="165" y2="95" style="stroke:rgb(0,0,0);stroke-width:1" />
<line x1="165" y1="95" x2="106" y2="145" style="stroke:rgb(0,0,0);stroke-width:1" />
<line x1="163" y1="0" x2="163" y2="0" style="stroke:rgb(255,0,0);stroke-width:1" />
<line x1="163" y1="0" x2="102" y2="48" style="stroke:rgb(255,0,0);stroke-width:1" />
<line x1="102" y1="48" x2="163" y2="0" style="stroke:rgb(255,0,0);stroke-width:1" />
<line x1="102" y1="48" x2="106" y2="145" style="stroke:rgb(0,0,0);stroke-width:1" />
<line x1="106" y1="145" x2="79" y2="120" style="stroke:rgb(0,0,0);stroke-width:1" />
<line x1="79" y1="120" x2="102" y2="48" style="stroke:rgb(0,0,0);stroke-width:1" />
<line x1="106" y1="145" x2="102" y2="48" style="stroke:rgb(0,0,0);stroke-width:1" />
<line x1="102" y1="48" x2="75" y2="23" style="stroke:rgb(0,0,0);stroke-width:1" />
<line x1="75" y1="23" x2="106" y2="145" style="stroke:rgb(0,0,0);stroke-width:1" />
<line x1="75" y1="23" x2="79" y2="120" style="stroke:rgb(0,0,0);stroke-width:1" />
<line x1="79" y1="120" x2="138" y2="71" style="stroke:rgb(0,0,0);stroke-width:1" />
<line x1="138" y1="71" x2="75" y2="23" style="stroke:rgb(0,0,0);stroke-width:1" />
<line x1="79" y1="120" x2="75" y2="23" style="stroke:rgb(255,0,0);stroke-width:1" />
<line x1="75" y1="23" x2="135" y2="-24" style="stroke:rgb(255,0,0);stroke-width:1" />
<line x1="135" y1="-24" x2="79" y2="120" style="stroke:rgb(255,0,0);stroke-width:1" />
<line x1="135" y1="-24" x2="138" y2="71" style="stroke:rgb(255,0,0);stroke-width:1" />
<line x1="138" y1="71" x2="165" y2="95" style="stroke:rgb(255,0,0);stroke-width:1" />
<line x1="165" y1="95" x2="135" y2="-24" style="stroke:rgb(255,0,0);stroke-width:1" />
<line x1="138" y1="71" x2="135" y2="-24" style="stroke:rgb(255,0,0);stroke-width:1" />
<line x1="135" y1="-24" x2="163" y2="0" style="stroke:rgb(255,0,0);stroke-width:1" />
<line x1="163" y1="0" x2="138" y2="71" style="stroke:rgb(255,0,0);stroke-width:1" />
<line x1="106" y1="145" x2="163" y2="0" style="stroke:rgb(255,0,0);stroke-width:1" />
<line x1="163" y1="0" x2="79" y2="120" style="stroke:rgb(255,0,0);stroke-width:1" />
<line x1="79" y1="120" x2="106" y2="145" style="stroke:rgb(255,0,0);stroke-width:1" />
<line x1="102" y1="48" x2="138" y2="71" style="stroke:rgb(0,0,0);stroke-width:1" />
<line x1="138" y1="71" x2="75" y2="23" style="stroke:rgb(0,0,0);stroke-width:1" />
<line x1="75" y1="23" x2="102" y2="48" style="stroke:rgb(0,0,0);stroke-width:1" />
<line x1="165" y1="95" x2="135" y2="-24" style="stroke:rgb(255,0,0);stroke-width:1" />
<line x1="135" y1="-24" x2="165" y2="95" style="stroke:rgb(255,0,0);stroke-width:1" />
<line x1="165" y1="95" x2="165" y2="95" style="stroke:rgb(255,0,0);stroke-width:1" />
<line x1="79" y1="120" x2="135" y2="-24" style="stroke:rgb(255,0,0);stroke-width:1" />
<line x1="135" y1="-24" x2="102" y2="48" style="stroke:rgb(255,0,0);stroke-width:1" />
<line x1="102" y1="48" x2="79" y2="120" style="stroke:rgb(255,0,0);stroke-width:1" />
<line x1="95" y1="-111" x2="120" y2="-130" style="stroke:rgb(255,0,0);stroke-width:1" />
<line x1="120" y1="-130" x2="100" y2="15" style="stroke:rgb(255,0,0);stroke-width:1" />
<line x1="100" y1="15" x2="95" y2="-111" style="stroke:rgb(255,0,0);stroke-width:1" />
<line x1="95" y1="-111" x2="107" y2="-102" style="stroke:rgb(255,0,0);stroke-width:1" />
<line x1="107" y1="-102" x2="132" y2="-121" style="stroke:rgb(255,0,0);stroke-width:1" />
<line x1="132" y1="-121" x2="95" y2="-111" style="stroke:rgb(255,0,0);stroke-width:1" />
<line x1="111" y1="25" x2="107" y2="-102" style="stroke:rgb(255,0,0);stroke-width:1" />
<line x1="107" y1="-102" x2="132" y2="-121" style="stroke:rgb(255,0,0);stroke-width:1" />
<line x1="132" y1="-121" x2="111" y2="25" style="stroke:rgb(255,0,0);stroke-width:1" />
<line x1="120" y1="-130" x2="107" y2="-102" style="stroke:rgb(255,0,0);stroke-width:1" />
<line x1="107" y1="-102" x2="95" y2="-111" style="stroke:rgb(255,0,0);stroke-width:1" />
<line x1="95" y1="-111" x2="120" y2="-130" style="stroke:rgb(255,0,0);stroke-width:1" />
<line x1="120" y1="-130" x2="124" y2="-3" style="stroke:rgb(255,0,0);stroke-width:1" />
<line x1="124" y1="-3" x2="132" y2="-121" style="stroke:rgb(255,0,0);stroke-width:1" />
<line x1="132" y1="-121" x2="120" y2="-130" style="stroke:rgb(255,0,0);stroke-width:1" />
<line x1="135" y1="5" x2="100" y2="15" style="stroke:rgb(0,0,0);stroke-width:1" />
<line x1="100" y1="15" x2="111" y2="25" style="stroke:rgb(0,0,0);stroke-width:1" />
<line x1="111" y1="25" x2="135" y2="5" style="stroke:rgb(0,0,0);stroke-width:1" />
<line x1="124" y1="-3" x2="135" y2="5" style="stroke:rgb(255,0,0);stroke-width:1" />
<line x1="135" y1="5" x2="135" y2="5" style="stroke:rgb(255,0,0);stroke-width:1" />
<line x1="135" y1="5" x2="124" y2="-3" style="stroke:rgb(255,0,0);stroke-width:1" />
<line x1="111" y1="25" x2="100" y2="15" style="stroke:rgb(255,0,0);stroke-width:1" />
<line x1="100" y1="15" x2="124" y2="-3" style="stroke:rgb(255,0,0);stroke-width:1" />
<line x1="124" y1="-3" x2="111" y2="25" style="stroke:rgb(255,0,0);stroke-width:1" />
<line x1="107" y1="-102" x2="120" y2="-130" style="stroke:rgb(255,0,0);stroke-width:1" />
<line x1="120" y1="-130" x2="111" y2="25" style="stroke:rgb(255,0,0);stroke-width:1" />
<line x1="111" y1="25" x2="107" y2="-102" style="stroke:rgb(255,0,0);stroke-width:1" />
<line x1="95" y1="-111" x2="132" y2="-121" style="stroke:rgb(255,0,0);stroke-width:1" />
<line x1="132" y1="-121" x2="124" y2="-3" style="stroke:rgb(255,0,0);stroke-width:1" />
<line x1="124" y1="-3" x2="95" y2="-111" style="stroke:rgb(255,0,0);stroke-width:1" />
<line x1="107" y1="-102" x2="135" y2="5" style="stroke:rgb(255,0,0);stroke-width:1" />
<line x1="135" y1="5" x2="124" y2="-3" style="stroke:rgb(255,0,0);stroke-width:1" />
<line x1="124" y1="-3" x2="107" y2="-102" style="stroke:rgb(255,0,0);stroke-width:1" />
<line x1="95" y1="-111" x2="100" y2="15" style="stroke:rgb(255,0,0);stroke-width:1" />
<line x1="100" y1="15" x2="135" y2="5" style="stroke:rgb(255,0,0);stroke-width:1" />
<line x1="135" y1="5" x2="95" y2="-111" style="stroke:rgb(255,0,0);stroke-width:1" />
<line x1="311" y1="336" x2="371" y2="279" style="stroke:rgb(0,0,0);stroke-width:1" />
<line x1="371" y1="279" x2="371" y2="279" style="stroke:rgb(0,0,0);stroke-width:1" />
<line x1="371" y1="279" x2="311" y2="336" style="stroke:rgb(0,0,0);stroke-width:1" />
<line x1="373" y1="180" x2="373" y2="180" style="stroke:rgb(0,0,0);stroke-width:1" />
<line x1="373" y1="180" x2="313" y2="236" style="stroke:rgb(0,0,0);stroke-width:1" />
<line x1="313" y1="236" x2="373" y2="180" style="stroke:rgb(0,0,0);stroke-width:1" />
<line x1="313" y1="236" x2="311" y2="336" style="stroke:rgb(0,0,0);stroke-width:1" />
<line x1="311" y1="336" x2="280" y2="307" style="stroke:rgb(0,0,0);stroke-width:1" />
<line x1="280" y1="307" x2="313" y2="236" style="stroke:rgb(0,0,0);stroke-width:1" />
<line x1="311" y1="336" x2="313" y2="236" style="stroke:rgb(0,0,0);stroke-width:1" />
<line x1="313" y1="236" x2="281" y2="208" style="stroke:rgb(0,0,0);stroke-width:1" />
<line x1="281" y1="208" x2="311" y2="336" style="stroke:rgb(0,0,0);stroke-width:1" />
<line x1="281" y1="208" x2="280" y2="307" style="stroke:rgb(0,0,0);stroke-width:1" />
<line x1="280" y1="307" x2="339" y2="251" style="stroke:rgb(0,0,0);stroke-width:1" />
<line x1="339" y1="251" x2="281" y2="208" style="stroke:rgb(0,0,0);stroke-width:1" />
<line x1="280" y1="307" x2="281" y2="208" style="stroke:rgb(0,0,0);stroke-width:1" />
<line x1="281" y1="208" x2="341" y2="152" style="stroke:rgb(0,0,0);stroke-width:1" />
<line x1="341" y1="152" x2="280" y2="307" style="stroke:rgb(0,0,0);stroke-width:1" />
<line x1="341" y1="152" x2="339" y2="251" style="stroke:rgb(0,0,0);stroke-width:1" />
<line x1="339" y1="251" x2="371" y2="279" style="stroke:rgb(0,0,0);stroke-width:1" />
<line x1="371" y1="279" x2="341" y2="152" style="stroke:rgb(0,0,0);stroke-width:1" />
<line x1="339" y1="251" x2="341" y2="152" style="stroke:rgb(0,0,0);stroke-width:1" />
<line x1="341" y1="152" x2="373" y2="180" style="stroke:rgb(0,0,0);stroke-width:1" />
<line x1="373" y1="180" x2="339" y2="251" style="stroke:rgb(0,0,0);stroke-width:1" />
<line x1="311" y1="336" x2="373" y2="180" style="stroke:rgb(0,0,0);stroke-width:1" />
<line x1="373" y1="180" x2="280" y2="307" style="stroke:rgb(0,0,0);stroke-width:1" />
<line x1="280" y1="307" x2="311" y2="336" style="stroke:rgb(0,0,0);stroke-width:1" />
<line x1="313" y1="236" x2="339" y2="251" style="stroke:rgb(0,0,0);stroke-width:1" />
<line x1="339" y1="251" x2="281" y2="208" style="stroke:rgb(0,0,0);stroke-width:1" />
<line x1="281" y1="208" x2="313" y2="236" style="stroke:rgb(0,0,0);stroke-width:1" />
<line x1="371" y1="279" x2="341" y2="152" style="stroke:rgb(0,0,0);stroke-width:1" />
<line x1="341" y1="152" x2="371" y2="279" style="stroke:rgb(0,0,0);stroke-width:1" />
<line x1="371" y1="279" x2="371" y2="279" style="stroke:rgb(0,0,0);stroke-width:1" />
<line x1="280" y1="307" x2="341" y2="152" style="stroke:rgb(0,0,0);stroke-width:1" />
<line x1="341" y1="152" x2="313" y2="236" style="stroke:rgb(0,0,0);stroke-width:1" />
<line x1="313" y1="236" x2="280" y2="307" style="stroke:rgb(0,0,0);stroke-width:1" />
<line x1="350" y1="59" x2="325" y2="81" style="stroke:rgb(0,0,0);stroke-width:1" />
<line x1="325" y1="81" x2="347" y2="190" style="stroke:rgb(0,0,0);stroke-width:1" />
<line x1="347" y1="190" x2="350" y2="59" style="stroke:rgb(0,0,0);stroke-width:1" />
<line x1="350" y1="59" x2="337" y2="48" style="stroke:rgb(0,0,0);stroke-width:1" />
<line x1="337" y1="48" x2="312" y2="70" style="stroke:rgb(0,0,0);stroke-width:1" />
<line x1="312" y1="70" x2="350" y2="59" style="stroke:rgb(0,0,0);stroke-width:1" />
<line x1="335" y1="178" x2="337" y2="48" style="stroke:rgb(0,0,0);stroke-width:1" />
<line x1="337" y1="48" x2="312" y2="70" style="stroke:rgb(0,0,0);stroke-width:1" />
<line x1="312" y1="70" x2="335" y2="178" style="stroke:rgb(0,0,0);stroke-width:1" />
<line x1="325" y1="81" x2="337" y2="48" style="stroke:rgb(0,0,0);stroke-width:1" />
<line x1="337" y1="48" x2="350" y2="59" style="stroke:rgb(0,0,0);stroke-width:1" />
<line x1="350" y1="59" x2="325" y2="81" style="stroke:rgb(0,0,0);stroke-width:1" />
<line x1="325" y1="81" x2="323" y2="212" style="stroke:rgb(0,0,0);stroke-width:1" />
<line x1="323" y1="212" x2="312" y2="70" style="stroke:rgb(0,0,0);stroke-width:1" />
<line x1="312" y1="70" x2="325" y2="81" style="stroke:rgb(0,0,0);stroke-width:1" />
<line x1="310" y1="201" x2="347" y2="190" style="stroke:rgb(0,0,0);stroke-width:1" />
<line x1="347" y1="190" x2="335" y2="178" style="stroke:rgb(0,0,0);stroke-width:1" />
<line x1="335" y1="178" x2="310" y2="201" style="stroke:rgb(0,0,0);stroke-width:1" />
<line x1="323" y1="212" x2="310" y2="201" style="stroke:rgb(0,0,0);stroke-width:1" />
<line x1="310" y1="201" x2="310" y2="201" style="stroke:rgb(0,0,0);stroke-width:1" />
<line x1="310" y1="201" x2="323" y2="212" style="stroke:rgb(0,0,0);stroke-width:1" />
<line x1="335" y1="178" x2="347" y2="190" style="stroke:rgb(0,0,0);stroke-width:1" />
<line x1="347" y1="190" x2="323" y2="212" style="stroke:rgb(0,0,0);stroke-width:1" />
<line x1="323" y1="212" x2="335" y2="178" style="stroke:rgb(0,0,0);stroke-width:1" />
<line x1="337" y1="48" x2="325" y2="81" style="stroke:rgb(0,0,0);stroke-width:1" />
<line x1="325" y1="81" x2="335" y2="178" style="stroke:rgb(0,0,0);stroke-width:1" />
<line x1="335" y1="178" x2="337" y2="48" style="stroke:rgb(0,0,0);stroke-width:1" />
<line x1="350" y1="59" x2="312" y2="70" style="stroke:rgb(0,0,0);stroke-width:1" />
<line x1="312" y1="70" x2="323" y2="212" style="stroke:rgb(0,0,0);stroke-width:1" />
<line x1="323" y1="212" x2="350" y2="59" style="stroke:rgb(0,0,0);stroke-width:1" />
<line x1="337" y1="48" x2="310" y2="201" style="stroke:rgb(0,0,0);stroke-width:1" />
<line x1="310" y1="201" x2="323" y2="212" style="stroke:rgb(0,0,0);stroke-width:1" />
<line x1="323" y1="212" x2="337" y2="48" style="stroke:rgb(0,0,0);stroke-width:1" />
<line x1="350" y1="59" x2="347" y2="190" style="stroke:rgb(0,0,0);stroke-width:1" />
<line x1="347" y1="190" x2="310" y2="201" style="stroke:rgb(0,0,0);stroke-width:1" />
<line x1="310" y1="201" x2="350" y2="59" style="stroke:rgb(0,0,0);stroke-width:1" />
</svg>
