<svg version="1.1" xmlns:xlink="http://www.w3.org/1999/xlink" xmlns="http://www.w3.org/2000/svg" width="512" height="512">
<line x1="227" y1="254" x2="211" y2="295" style="stroke:rgb(0,0,0);stroke-width:1" />
<line x1="211" y1="295" x2="336" y2="257" style="stroke:rgb(0,0,0);stroke-width:1" />
<line x1="336" y1="257" x2="227" y2="254" style="stroke:rgb(0,0,0);stroke-width:1" />
<line x1="227" y1="254" x2="339" y2="95" style="stroke:rgb(0,0,0);stroke-width:1" />
<line x1="339" y1="95" x2="336" y2="257" style="stroke:rgb(0,0,0);stroke-width:1" />
<line x1="336" y1="257" x2="227" y2="254" style="stroke:rgb(0,0,0);stroke-width:1" />
<line x1="211" y1="295" x2="209" y2="108" style="stroke:rgb(0,0,0);stroke-width:1" />
<line x1="209" y1="108" x2="342" y2="110" style="stroke:rgb(0,0,0);stroke-width:1" />
<line x1="342" y1="110" x2="211" y2="295" style="stroke:rgb(0,0,0);stroke-width:1" />
<line x1="339" y1="299" x2="226" y2="94" style="stroke:rgb(0,0,0);stroke-width:1" />
<line x1="226" y1="94" x2="227" y2="254" style="stroke:rgb(0,0,0);stroke-width:1" />
<line x1="227" y1="254" x2="339" y2="299" style="stroke:rgb(0,0,0);stroke-width:1" />
<line x1="342" y1="110" x2="209" y2="108" style="stroke:rgb(0,0,0);stroke-width:1" />
<line x1="209" y1="108" x2="339" y2="95" style="stroke:rgb(0,0,0);stroke-width:1" />
<line x1="339" y1="95" x2="342" y2="110" style="stroke:rgb(0,0,0);stroke-width:1" />
<line x1="342" y1="110" x2="211" y2="295" style="stroke:rgb(0,0,0);stroke-width:1" />
<line x1="211" y1="295" x2="339" y2="299" style="stroke:rgb(0,0,0);stroke-width:1" />
<line x1="339" y1="299" x2="342" y2="110" style="stroke:rgb(0,0,0);stroke-width:1" />
<line x1="209" y1="108" x2="226" y2="94" style="stroke:rgb(0,0,0);stroke-width:1" />
<line x1="226" y1="94" x2="226" y2="94" style="stroke:rgb(0,0,0);stroke-width:1" />
<line x1="226" y1="94" x2="209" y2="108" style="stroke:rgb(0,0,0);stroke-width:1" />
<line x1="339" y1="95" x2="339" y2="299" style="stroke:rgb(0,0,0);stroke-width:1" />
<line x1="339" y1="299" x2="336" y2="257" style="stroke:rgb(0,0,0);stroke-width:1" />
<line x1="336" y1="257" x2="339" y2="95" style="stroke:rgb(0,0,0);stroke-width:1" />
<line x1="342" y1="110" x2="226" y2="94" style="stroke:rgb(0,0,0);stroke-width:1" />
<line x1="226" y1="94" x2="211" y2="295" style="stroke:rgb(0,0,0);stroke-width:1" />
<line x1="211" y1="295" x2="342" y2="110" style="stroke:rgb(0,0,0);stroke-width:1" />
<line x1="342" y1="110" x2="227" y2="254" style="stroke:rgb(0,0,0);stroke-width:1" />
<line x1="227" y1="254" x2="209" y2="108" style="stroke:rgb(0,0,0);stroke-width:1" />
<line x1="209" y1="108" x2="342" y2="110" style="stroke:rgb(0,0,0);stroke-width:1" />
<line x1="211" y1="295" x2="336" y2="257" style="stroke:rgb(0,0,0);stroke-width:1" />
<line x1="336" y1="257" x2="339" y2="299" style="stroke:rgb(0,0,0);stroke-width:1" />
<line x1="339" y1="299" x2="211" y2="295" style="stroke:rgb(0,0,0);stroke-width:1" />
<line x1="339" y1="95" x2="336" y2="257" style="stroke:rgb(0,0,0);stroke-width:1" />
<line x1="336" y1="257" x2="226" y2="94" style="stroke:rgb(0,0,0);stroke-width:1" />
<line x1="226" y1="94" x2="339" y2="95" style="stroke:rgb(0,0,0);stroke-width:1" />
<line x1="230" y1="423" x2="226" y2="444" style="stroke:rgb(0,0,0);stroke-width:1" />
<line x1="226" y1="444" x2="226" y2="444" style="stroke:rgb(0,0,0);stroke-width:1" />
<line x1="226" y1="444" x2="230" y2="423" style="stroke:rgb(0,0,0);stroke-width:1" />
<line x1="225" y1="280" x2="225" y2="280" style="stroke:rgb(0,0,0);stroke-width:1" />
<line x1="225" y1="280" x2="230" y2="266" style="stroke:rgb(0,0,0);stroke-width:1" />
<line x1="230" y1="266" x2="225" y2="280" style="stroke:rgb(0,0,0);stroke-width:1" />
<line x1="230" y1="266" x2="230" y2="423" style="stroke:rgb(0,0,0);stroke-width:1" />
<line x1="230" y1="423" x2="267" y2="425" style="stroke:rgb(0,0,0);stroke-width:1" />
<line x1="267" y1="425" x2="230" y2="266" style="stroke:rgb(0,0,0);stroke-width:1" />
<line x1="230" y1="423" x2="230" y2="266" style="stroke:rgb(0,0,0);stroke-width:1" />
<line x1="230" y1="266" x2="268" y2="267" style="stroke:rgb(0,0,0);stroke-width:1" />
<line x1="268" y1="267" x2="230" y2="423" style="stroke:rgb(0,0,0);stroke-width:1" />
<line x1="268" y1="267" x2="267" y2="425" style="stroke:rgb(0,0,0);stroke-width:1" />
<line x1="267" y1="425" x2="264" y2="446" style="stroke:rgb(0,0,0);stroke-width:1" />
<line x1="264" y1="446" x2="268" y2="267" style="stroke:rgb(0,0,0);stroke-width:1" />
<line x1="267" y1="425" x2="268" y2="267" style="stroke:rgb(0,0,0);stroke-width:1" />
<line x1="268" y1="267" x2="265" y2="281" style="stroke:rgb(0,0,0);stroke-width:1" />
<line x1="265" y1="281" x2="267" y2="425" style="stroke:rgb(0,0,0);stroke-width:1" />
<line x1="265" y1="281" x2="264" y2="446" style="stroke:rgb(0,0,0);stroke-width:1" />
<line x1="264" y1="446" x2="226" y2="444" style="stroke:rgb(0,0,0);stroke-width:1" />
<line x1="226" y1="444" x2="265" y2="281" style="stroke:rgb(0,0,0);stroke-width:1" />
<line x1="264" y1="446" x2="265" y2="281" style="stroke:rgb(0,0,0);stroke-width:1" />
<line x1="265" y1="281" x2="225" y2="280" style="stroke:rgb(0,0,0);stroke-width:1" />
<line x1="225" y1="280" x2="264" y2="446" style="stroke:rgb(0,0,0);stroke-width:1" />
<line x1="230" y1="423" x2="225" y2="280" style="stroke:rgb(0,0,0);stroke-width:1" />
<line x1="225" y1="280" x2="267" y2="425" style="stroke:rgb(0,0,0);stroke-width:1" />
<line x1="267" y1="425" x2="230" y2="423" style="stroke:rgb(0,0,0);stroke-width:1" />
<line x1="230" y1="266" x2="264" y2="446" style="stroke:rgb(0,0,0);stroke-width:1" />
<line x1="264" y1="446" x2="268" y2="267" style="stroke:rgb(0,0,0);stroke-width:1" />
<line x1="268" y1="267" x2="230" y2="266" style="stroke:rgb(0,0,0);stroke-width:1" />
<line x1="226" y1="444" x2="265" y2="281" style="stroke:rgb(0,0,0);stroke-width:1" />
<line x1="265" y1="281" x2="226" y2="444" style="stroke:rgb(0,0,0);stroke-width:1" />
<line x1="226" y1="444" x2="226" y2="444" style="stroke:rgb(0,0,0);stroke-width:1" />
<line x1="267" y1="425" x2="265" y2="281" style="stroke:rgb(0,0,0);stroke-width:1" />
<line x1="265" y1="281" x2="230" y2="266" style="stroke:rgb(0,0,0);stroke-width:1" />
<line x1="230" y1="266" x2="267" y2="425" style="stroke:rgb(0,0,0);stroke-width:1" />
<line x1="289" y1="426" x2="288" y2="448" style="stroke:rgb(0,0,0);stroke-width:1" />
<line x1="288" y1="448" x2="288" y2="448" style="stroke:rgb(0,0,0);stroke-width:1" />
<line x1="288" y1="448" x2="289" y2="426" style="stroke:rgb(0,0,0);stroke-width:1" />
<line x1="289" y1="282" x2="289" y2="282" style="stroke:rgb(0,0,0);stroke-width:1" />
<line x1="289" y1="282" x2="291" y2="268" style="stroke:rgb(0,0,0);stroke-width:1" />
<line x1="291" y1="268" x2="289" y2="282" style="stroke:rgb(0,0,0);stroke-width:1" />
<line x1="291" y1="268" x2="289" y2="426" style="stroke:rgb(0,0,0);stroke-width:1" />
<line x1="289" y1="426" x2="327" y2="428" style="stroke:rgb(0,0,0);stroke-width:1" />
<line x1="327" y1="428" x2="291" y2="268" style="stroke:rgb(0,0,0);stroke-width:1" />
<line x1="289" y1="426" x2="291" y2="268" style="stroke:rgb(0,0,0);stroke-width:1" />
<line x1="291" y1="268" x2="329" y2="269" style="stroke:rgb(0,0,0);stroke-width:1" />
<line x1="329" y1="269" x2="289" y2="426" style="stroke:rgb(0,0,0);stroke-width:1" />
<line x1="329" y1="269" x2="327" y2="428" style="stroke:rgb(0,0,0);stroke-width:1" />
<line x1="327" y1="428" x2="327" y2="450" style="stroke:rgb(0,0,0);stroke-width:1" />
<line x1="327" y1="450" x2="329" y2="269" style="stroke:rgb(0,0,0);stroke-width:1" />
<line x1="327" y1="428" x2="329" y2="269" style="stroke:rgb(0,0,0);stroke-width:1" />
<line x1="329" y1="269" x2="330" y2="283" style="stroke:rgb(0,0,0);stroke-width:1" />
<line x1="330" y1="283" x2="327" y2="428" style="stroke:rgb(0,0,0);stroke-width:1" />
<line x1="330" y1="283" x2="327" y2="450" style="stroke:rgb(0,0,0);stroke-width:1" />
<line x1="327" y1="450" x2="288" y2="448" style="stroke:rgb(0,0,0);stroke-width:1" />
<line x1="288" y1="448" x2="330" y2="283" style="stroke:rgb(0,0,0);stroke-width:1" />
<line x1="327" y1="450" x2="330" y2="283" style="stroke:rgb(0,0,0);stroke-width:1" />
<line x1="330" y1="283" x2="289" y2="282" style="stroke:rgb(0,0,0);stroke-width:1" />
<line x1="289" y1="282" x2="327" y2="450" style="stroke:rgb(0,0,0);stroke-width:1" />
<line x1="289" y1="426" x2="289" y2="282" style="stroke:rgb(0,0,0);stroke-width:1" />
<line x1="289" y1="282" x2="327" y2="428" style="stroke:rgb(0,0,0);stroke-width:1" />
<line x1="327" y1="428" x2="289" y2="426" style="stroke:rgb(0,0,0);stroke-width:1" />
<line x1="291" y1="268" x2="327" y2="450" style="stroke:rgb(0,0,0);stroke-width:1" />
<line x1="327" y1="450" x2="329" y2="269" style="stroke:rgb(0,0,0);stroke-width:1" />
<line x1="329" y1="269" x2="291" y2="268" style="stroke:rgb(0,0,0);stroke-width:1" />
<line x1="288" y1="448" x2="330" y2="283" style="stroke:rgb(0,0,0);stroke-width:1" />
<line x1="330" y1="283" x2="288" y2="448" style="stroke:rgb(0,0,0);stroke-width:1" />
<line x1="288" y1="448" x2="288" y2="448" style="stroke:rgb(0,0,0);stroke-width:1" />
<line x1="327" y1="428" x2="330" y2="283" style="stroke:rgb(0,0,0);stroke-width:1" />
<line x1="330" y1="283" x2="291" y2="268" style="stroke:rgb(0,0,0);stroke-width:1" />
<line x1="291" y1="268" x2="327" y2="428" style="stroke:rgb(0,0,0);stroke-width:1" />
<line x1="204" y1="96" x2="202" y2="98" style="stroke:rgb(0,0,0);stroke-width:1" />
<line x1="202" y1="98" x2="202" y2="98" style="stroke:rgb(0,0,0);stroke-width:1" />
<line x1="202" y1="98" x2="204" y2="96" style="stroke:rgb(0,0,0);stroke-width:1" />
<line x1="202" y1="86" x2="202" y2="86" style="stroke:rgb(0,0,0);stroke-width:1" />
<line x1="202" y1="86" x2="204" y2="84" style="stroke:rgb(0,0,0);stroke-width:1" />
<line x1="204" y1="84" x2="202" y2="86" style="stroke:rgb(0,0,0);stroke-width:1" />
<line x1="204" y1="84" x2="204" y2="96" style="stroke:rgb(0,0,0);stroke-width:1" />
<line x1="204" y1="96" x2="356" y2="98" style="stroke:rgb(0,0,0);stroke-width:1" />
<line x1="356" y1="98" x2="204" y2="84" style="stroke:rgb(0,0,0);stroke-width:1" />
<line x1="204" y1="96" x2="204" y2="84" style="stroke:rgb(0,0,0);stroke-width:1" />
<line x1="204" y1="84" x2="356" y2="86" style="stroke:rgb(0,0,0);stroke-width:1" />
<line x1="356" y1="86" x2="204" y2="96" style="stroke:rgb(0,0,0);stroke-width:1" />
<line x1="356" y1="86" x2="356" y2="98" style="stroke:rgb(0,0,0);stroke-width:1" />
<line x1="356" y1="98" x2="357" y2="100" style="stroke:rgb(0,0,0);stroke-width:1" />
<line x1="357" y1="100" x2="356" y2="86" style="stroke:rgb(0,0,0);stroke-width:1" />
<line x1="356" y1="98" x2="356" y2="86" style="stroke:rgb(0,0,0);stroke-width:1" />
<line x1="356" y1="86" x2="357" y2="88" style="stroke:rgb(0,0,0);stroke-width:1" />
<line x1="357" y1="88" x2="356" y2="98" style="stroke:rgb(0,0,0);stroke-width:1" />
<line x1="357" y1="88" x2="357" y2="100" style="stroke:rgb(0,0,0);stroke-width:1" />
<line x1="357" y1="100" x2="202" y2="98" style="stroke:rgb(0,0,0);stroke-width:1" />
<line x1="202" y1="98" x2="357" y2="88" style="stroke:rgb(0,0,0);stroke-width:1" />
<line x1="357" y1="100" x2="357" y2="88" style="stroke:rgb(0,0,0);stroke-width:1" />
<line x1="357" y1="88" x2="202" y2="86" style="stroke:rgb(0,0,0);stroke-width:1" />
<line x1="202" y1="86" x2="357" y2="100" style="stroke:rgb(0,0,0);stroke-width:1" />
<line x1="204" y1="96" x2="202" y2="86" style="stroke:rgb(0,0,0);stroke-width:1" />
<line x1="202" y1="86" x2="356" y2="98" style="stroke:rgb(0,0,0);stroke-width:1" />
<line x1="356" y1="98" x2="204" y2="96" style="stroke:rgb(0,0,0);stroke-width:1" />
<line x1="204" y1="84" x2="357" y2="100" style="stroke:rgb(0,0,0);stroke-width:1" />
<line x1="357" y1="100" x2="356" y2="86" style="stroke:rgb(0,0,0);stroke-width:1" />
<line x1="356" y1="86" x2="204" y2="84" style="stroke:rgb(0,0,0);stroke-width:1" />
<line x1="202" y1="98" x2="357" y2="88" style="stroke:rgb(0,0,0);stroke-width:1" />
<line x1="357" y1="88" x2="202" y2="98" style="stroke:rgb(0,0,0);stroke-width:1" />
<line x1="202" y1="98" x2="202" y2="98" style="stroke:rgb(0,0,0);stroke-width:1" />
<line x1="356" y1="98" x2="357" y2="88" style="stroke:rgb(0,0,0);stroke-width:1" />
<line x1="357" y1="88" x2="204" y2="84" style="stroke:rgb(0,0,0);stroke-width:1" />
<line x1="204" y1="84" x2="356" y2="98" style="stroke:rgb(0,0,0);stroke-width:1" />
<line x1="338" y1="214" x2="339" y2="225" style="stroke:rgb(0,0,0);stroke-width:1" />
<line x1="339" y1="225" x2="339" y2="225" style="stroke:rgb(0,0,0);stroke-width:1" />
<line x1="339" y1="225" x2="338" y2="214" style="stroke:rgb(0,0,0);stroke-width:1" />
<line x1="340" y1="166" x2="340" y2="166" style="stroke:rgb(0,0,0);stroke-width:1" />
<line x1="340" y1="166" x2="339" y2="157" style="stroke:rgb(0,0,0);stroke-width:1" />
<line x1="339" y1="157" x2="340" y2="166" style="stroke:rgb(0,0,0);stroke-width:1" />
<line x1="339" y1="157" x2="338" y2="214" style="stroke:rgb(0,0,0);stroke-width:1" />
<line x1="338" y1="214" x2="358" y2="215" style="stroke:rgb(0,0,0);stroke-width:1" />
<line x1="358" y1="215" x2="339" y2="157" style="stroke:rgb(0,0,0);stroke-width:1" />
<line x1="338" y1="214" x2="339" y2="157" style="stroke:rgb(0,0,0);stroke-width:1" />
<line x1="339" y1="157" x2="359" y2="158" style="stroke:rgb(0,0,0);stroke-width:1" />
<line x1="359" y1="158" x2="338" y2="214" style="stroke:rgb(0,0,0);stroke-width:1" />
<line x1="359" y1="158" x2="358" y2="215" style="stroke:rgb(0,0,0);stroke-width:1" />
<line x1="358" y1="215" x2="360" y2="226" style="stroke:rgb(0,0,0);stroke-width:1" />
<line x1="360" y1="226" x2="359" y2="158" style="stroke:rgb(0,0,0);stroke-width:1" />
<line x1="358" y1="215" x2="359" y2="158" style="stroke:rgb(0,0,0);stroke-width:1" />
<line x1="359" y1="158" x2="361" y2="166" style="stroke:rgb(0,0,0);stroke-width:1" />
<line x1="361" y1="166" x2="358" y2="215" style="stroke:rgb(0,0,0);stroke-width:1" />
<line x1="361" y1="166" x2="360" y2="226" style="stroke:rgb(0,0,0);stroke-width:1" />
<line x1="360" y1="226" x2="339" y2="225" style="stroke:rgb(0,0,0);stroke-width:1" />
<line x1="339" y1="225" x2="361" y2="166" style="stroke:rgb(0,0,0);stroke-width:1" />
<line x1="360" y1="226" x2="361" y2="166" style="stroke:rgb(0,0,0);stroke-width:1" />
<line x1="361" y1="166" x2="340" y2="166" style="stroke:rgb(0,0,0);stroke-width:1" />
<line x1="340" y1="166" x2="360" y2="226" style="stroke:rgb(0,0,0);stroke-width:1" />
<line x1="338" y1="214" x2="340" y2="166" style="stroke:rgb(0,0,0);stroke-width:1" />
<line x1="340" y1="166" x2="358" y2="215" style="stroke:rgb(0,0,0);stroke-width:1" />
<line x1="358" y1="215" x2="338" y2="214" style="stroke:rgb(0,0,0);stroke-width:1" />
<line x1="339" y1="157" x2="360" y2="226" style="stroke:rgb(0,0,0);stroke-width:1" />
<line x1="360" y1="226" x2="359" y2="158" style="stroke:rgb(0,0,0);stroke-width:1" />
<line x1="359" y1="158" x2="339" y2="157" style="stroke:rgb(0,0,0);stroke-width:1" />
<line x1="339" y1="225" x2="361" y2="166" style="stroke:rgb(0,0,0);stroke-width:1" />
<line x1="361" y1="166" x2="339" y2="225" style="stroke:rgb(0,0,0);stroke-width:1" />
<line x1="339" y1="225" x2="339" y2="225" style="stroke:rgb(0,0,0);stroke-width:1" />
<line x1="358" y1="215" x2="361" y2="166" style="stroke:rgb(0,0,0);stroke-width:1" />
<line x1="361" y1="166" x2="339" y2="157" style="stroke:rgb(0,0,0);stroke-width:1" />
<line x1="339" y1="157" x2="358" y2="215" style="stroke:rgb(0,0,0);stroke-width:1" />
<line x1="356" y1="86" x2="357" y2="88" style="stroke:rgb(0,0,0);stroke-width:1" />
<line x1="357" y1="88" x2="355" y2="160" style="stroke:rgb(0,0,0);stroke-width:1" />
<line x1="355" y1="160" x2="356" y2="86" style="stroke:rgb(0,0,0);stroke-width:1" />
<line x1="356" y1="86" x2="348" y2="86" style="stroke:rgb(0,0,0);stroke-width:1" />
<line x1="348" y1="86" x2="348" y2="87" style="stroke:rgb(0,0,0);stroke-width:1" />
<line x1="348" y1="87" x2="356" y2="86" style="stroke:rgb(0,0,0);stroke-width:1" />
<line x1="346" y1="160" x2="348" y2="86" style="stroke:rgb(0,0,0);stroke-width:1" />
<line x1="348" y1="86" x2="348" y2="87" style="stroke:rgb(0,0,0);stroke-width:1" />
<line x1="348" y1="87" x2="346" y2="160" style="stroke:rgb(0,0,0);stroke-width:1" />
<line x1="357" y1="88" x2="348" y2="86" style="stroke:rgb(0,0,0);stroke-width:1" />
<line x1="348" y1="86" x2="356" y2="86" style="stroke:rgb(0,0,0);stroke-width:1" />
<line x1="356" y1="86" x2="357" y2="88" style="stroke:rgb(0,0,0);stroke-width:1" />
<line x1="357" y1="88" x2="355" y2="163" style="stroke:rgb(0,0,0);stroke-width:1" />
<line x1="355" y1="163" x2="348" y2="87" style="stroke:rgb(0,0,0);stroke-width:1" />
<line x1="348" y1="87" x2="357" y2="88" style="stroke:rgb(0,0,0);stroke-width:1" />
<line x1="347" y1="163" x2="355" y2="160" style="stroke:rgb(0,0,0);stroke-width:1" />
<line x1="355" y1="160" x2="346" y2="160" style="stroke:rgb(0,0,0);stroke-width:1" />
<line x1="346" y1="160" x2="347" y2="163" style="stroke:rgb(0,0,0);stroke-width:1" />
<line x1="355" y1="163" x2="347" y2="163" style="stroke:rgb(0,0,0);stroke-width:1" />
<line x1="347" y1="163" x2="347" y2="163" style="stroke:rgb(0,0,0);stroke-width:1" />
<line x1="347" y1="163" x2="355" y2="163" style="stroke:rgb(0,0,0);stroke-width:1" />
<line x1="346" y1="160" x2="355" y2="160" style="stroke:rgb(0,0,0);stroke-width:1" />
<line x1="355" y1="160" x2="355" y2="163" style="stroke:rgb(0,0,0);stroke-width:1" />
<line x1="355" y1="163" x2="346" y2="160" style="stroke:rgb(0,0,0);stroke-width:1" />
<line x1="348" y1="86" x2="357" y2="88" style="stroke:rgb(0,0,0);stroke-width:1" />
<line x1="357" y1="88" x2="346" y2="160" style="stroke:rgb(0,0,0);stroke-width:1" />
<line x1="346" y1="160" x2="348" y2="86" style="stroke:rgb(0,0,0);stroke-width:1" />
<line x1="356" y1="86" x2="348" y2="87" style="stroke:rgb(0,0,0);stroke-width:1" />
<line x1="348" y1="87" x2="355" y2="163" style="stroke:rgb(0,0,0);stroke-width:1" />
<line x1="355" y1="163" x2="356" y2="86" style="stroke:rgb(0,0,0);stroke-width:1" />
<line x1="348" y1="86" x2="347" y2="163" style="stroke:rgb(0,0,0);stroke-width:1" />
<line x1="347" y1="163" x2="355" y2="163" style="stroke:rgb(0,0,0);stroke-width:1" />
<line x1="355" y1="163" x2="348" y2="86" style="stroke:rgb(0,0,0);stroke-width:1" />
<line x1="356" y1="86" x2="355" y2="160" style="stroke:rgb(0,0,0);stroke-width:1" />
<line x1="355" y1="160" x2="347" y2="163" style="stroke:rgb(0,0,0);stroke-width:1" />
<line x1="347" y1="163" x2="356" y2="86" style="stroke:rgb(0,0,0);stroke-width:1" />
<line x1="203" y1="211" x2="196" y2="222" style="stroke:rgb(0,0,0);stroke-width:1" />
<line x1="196" y1="222" x2="196" y2="222" style="stroke:rgb(0,0,0);stroke-width:1" />
<line x1="196" y1="222" x2="203" y2="211" style="stroke:rgb(0,0,0);stroke-width:1" />
<line x1="195" y1="163" x2="195" y2="163" style="stroke:rgb(0,0,0);stroke-width:1" />
<line x1="195" y1="163" x2="202" y2="155" style="stroke:rgb(0,0,0);stroke-width:1" />
<line x1="202" y1="155" x2="195" y2="163" style="stroke:rgb(0,0,0);stroke-width:1" />
<line x1="202" y1="155" x2="203" y2="211" style="stroke:rgb(0,0,0);stroke-width:1" />
<line x1="203" y1="211" x2="222" y2="211" style="stroke:rgb(0,0,0);stroke-width:1" />
<line x1="222" y1="211" x2="202" y2="155" style="stroke:rgb(0,0,0);stroke-width:1" />
<line x1="203" y1="211" x2="202" y2="155" style="stroke:rgb(0,0,0);stroke-width:1" />
<line x1="202" y1="155" x2="221" y2="155" style="stroke:rgb(0,0,0);stroke-width:1" />
<line x1="221" y1="155" x2="203" y2="211" style="stroke:rgb(0,0,0);stroke-width:1" />
<line x1="221" y1="155" x2="222" y2="211" style="stroke:rgb(0,0,0);stroke-width:1" />
<line x1="222" y1="211" x2="216" y2="222" style="stroke:rgb(0,0,0);stroke-width:1" />
<line x1="216" y1="222" x2="221" y2="155" style="stroke:rgb(0,0,0);stroke-width:1" />
<line x1="222" y1="211" x2="221" y2="155" style="stroke:rgb(0,0,0);stroke-width:1" />
<line x1="221" y1="155" x2="216" y2="163" style="stroke:rgb(0,0,0);stroke-width:1" />
<line x1="216" y1="163" x2="222" y2="211" style="stroke:rgb(0,0,0);stroke-width:1" />
<line x1="216" y1="163" x2="216" y2="222" style="stroke:rgb(0,0,0);stroke-width:1" />
<line x1="216" y1="222" x2="196" y2="222" style="stroke:rgb(0,0,0);stroke-width:1" />
<line x1="196" y1="222" x2="216" y2="163" style="stroke:rgb(0,0,0);stroke-width:1" />
<line x1="216" y1="222" x2="216" y2="163" style="stroke:rgb(0,0,0);stroke-width:1" />
<line x1="216" y1="163" x2="195" y2="163" style="stroke:rgb(0,0,0);stroke-width:1" />
<line x1="195" y1="163" x2="216" y2="222" style="stroke:rgb(0,0,0);stroke-width:1" />
<line x1="203" y1="211" x2="195" y2="163" style="stroke:rgb(0,0,0);stroke-width:1" />
<line x1="195" y1="163" x2="222" y2="211" style="stroke:rgb(0,0,0);stroke-width:1" />
<line x1="222" y1="211" x2="203" y2="211" style="stroke:rgb(0,0,0);stroke-width:1" />
<line x1="202" y1="155" x2="216" y2="222" style="stroke:rgb(0,0,0);stroke-width:1" />
<line x1="216" y1="222" x2="221" y2="155" style="stroke:rgb(0,0,0);stroke-width:1" />
<line x1="221" y1="155" x2="202" y2="155" style="stroke:rgb(0,0,0);stroke-width:1" />
<line x1="196" y1="222" x2="216" y2="163" style="stroke:rgb(0,0,0);stroke-width:1" />
<line x1="216" y1="163" x2="196" y2="222" style="stroke:rgb(0,0,0);stroke-width:1" />
<line x1="196" y1="222" x2="196" y2="222" style="stroke:rgb(0,0,0);stroke-width:1" />
<line x1="222" y1="211" x2="216" y2="163" style="stroke:rgb(0,0,0);stroke-width:1" />
<line x1="216" y1="163" x2="202" y2="155" style="stroke:rgb(0,0,0);stroke-width:1" />
<line x1="202" y1="155" x2="222" y2="211" style="stroke:rgb(0,0,0);stroke-width:1" />
<line x1="202" y1="86" x2="204" y2="84" style="stroke:rgb(0,0,0);stroke-width:1" />
<line x1="204" y1="84" x2="202" y2="161" style="stroke:rgb(0,0,0);stroke-width:1" />
<line x1="202" y1="161" x2="202" y2="86" style="stroke:rgb(0,0,0);stroke-width:1" />
<line x1="202" y1="86" x2="210" y2="86" style="stroke:rgb(0,0,0);stroke-width:1" />
<line x1="210" y1="86" x2="212" y2="85" style="stroke:rgb(0,0,0);stroke-width:1" />
<line x1="212" y1="85" x2="202" y2="86" style="stroke:rgb(0,0,0);stroke-width:1" />
<line x1="210" y1="161" x2="210" y2="86" style="stroke:rgb(0,0,0);stroke-width:1" />
<line x1="210" y1="86" x2="212" y2="85" style="stroke:rgb(0,0,0);stroke-width:1" />
<line x1="212" y1="85" x2="210" y2="161" style="stroke:rgb(0,0,0);stroke-width:1" />
<line x1="204" y1="84" x2="210" y2="86" style="stroke:rgb(0,0,0);stroke-width:1" />
<line x1="210" y1="86" x2="202" y2="86" style="stroke:rgb(0,0,0);stroke-width:1" />
<line x1="202" y1="86" x2="204" y2="84" style="stroke:rgb(0,0,0);stroke-width:1" />
<line x1="204" y1="84" x2="205" y2="158" style="stroke:rgb(0,0,0);stroke-width:1" />
<line x1="205" y1="158" x2="212" y2="85" style="stroke:rgb(0,0,0);stroke-width:1" />
<line x1="212" y1="85" x2="204" y2="84" style="stroke:rgb(0,0,0);stroke-width:1" />
<line x1="213" y1="158" x2="202" y2="161" style="stroke:rgb(0,0,0);stroke-width:1" />
<line x1="202" y1="161" x2="210" y2="161" style="stroke:rgb(0,0,0);stroke-width:1" />
<line x1="210" y1="161" x2="213" y2="158" style="stroke:rgb(0,0,0);stroke-width:1" />
<line x1="205" y1="158" x2="213" y2="158" style="stroke:rgb(0,0,0);stroke-width:1" />
<line x1="213" y1="158" x2="213" y2="158" style="stroke:rgb(0,0,0);stroke-width:1" />
<line x1="213" y1="158" x2="205" y2="158" style="stroke:rgb(0,0,0);stroke-width:1" />
<line x1="210" y1="161" x2="202" y2="161" style="stroke:rgb(0,0,0);stroke-width:1" />
<line x1="202" y1="161" x2="205" y2="158" style="stroke:rgb(0,0,0);stroke-width:1" />
<line x1="205" y1="158" x2="210" y2="161" style="stroke:rgb(0,0,0);stroke-width:1" />
<line x1="210" y1="86" x2="204" y2="84" style="stroke:rgb(0,0,0);stroke-width:1" />
<line x1="204" y1="84" x2="210" y2="161" style="stroke:rgb(0,0,0);stroke-width:1" />
<line x1="210" y1="161" x2="210" y2="86" style="stroke:rgb(0,0,0);stroke-width:1" />
<line x1="202" y1="86" x2="212" y2="85" style="stroke:rgb(0,0,0);stroke-width:1" />
<line x1="212" y1="85" x2="205" y2="158" style="stroke:rgb(0,0,0);stroke-width:1" />
<line x1="205" y1="158" x2="202" y2="86" style="stroke:rgb(0,0,0);stroke-width:1" />
<line x1="210" y1="86" x2="213" y2="158" style="stroke:rgb(0,0,0);stroke-width:1" />
<line x1="213" y1="158" x2="205" y2="158" style="stroke:rgb(0,0,0);stroke-width:1" />
<line x1="205" y1="158" x2="210" y2="86" style="stroke:rgb(0,0,0);stroke-width:1" />
<line x1="202" y1="86" x2="202" y2="161" style="stroke:rgb(0,0,0);stroke-width:1" />
<line x1="202" y1="161" x2="213" y2="158" style="stroke:rgb(0,0,0);stroke-width:1" />
<line x1="213" y1="158" x2="202" y2="86" style="stroke:rgb(0,0,0);stroke-width:1" />
</svg>
