<svg version="1.1" xmlns:xlink="http://www.w3.org/1999/xlink" xmlns="http://www.w3.org/2000/svg" width="512" height="512">
<line x1="244" y1="304" x2="194" y2="307" style="stroke:rgb(0,0,0);stroke-width:1" />
<line x1="194" y1="307" x2="301" y2="231" style="stroke:rgb(0,0,0);stroke-width:1" />
<line x1="301" y1="231" x2="244" y2="304" style="stroke:rgb(0,0,0);stroke-width:1" />
<line x1="244" y1="304" x2="258" y2="137" style="stroke:rgb(0,0,0);stroke-width:1" />
<line x1="258" y1="137" x2="301" y2="231" style="stroke:rgb(0,0,0);stroke-width:1" />
<line x1="301" y1="231" x2="244" y2="304" style="stroke:rgb(0,0,0);stroke-width:1" />
<line x1="194" y1="307" x2="153" y2="205" style="stroke:rgb(0,0,0);stroke-width:1" />
<line x1="153" y1="205" x2="209" y2="122" style="stroke:rgb(0,0,0);stroke-width:1" />
<line x1="209" y1="122" x2="194" y2="307" style="stroke:rgb(0,0,0);stroke-width:1" />
<line x1="254" y1="227" x2="205" y2="211" style="stroke:rgb(0,0,0);stroke-width:1" />
<line x1="205" y1="211" x2="244" y2="304" style="stroke:rgb(0,0,0);stroke-width:1" />
<line x1="244" y1="304" x2="254" y2="227" style="stroke:rgb(0,0,0);stroke-width:1" />
<line x1="209" y1="122" x2="153" y2="205" style="stroke:rgb(0,0,0);stroke-width:1" />
<line x1="153" y1="205" x2="258" y2="137" style="stroke:rgb(0,0,0);stroke-width:1" />
<line x1="258" y1="137" x2="209" y2="122" style="stroke:rgb(0,0,0);stroke-width:1" />
<line x1="209" y1="122" x2="194" y2="307" style="stroke:rgb(0,0,0);stroke-width:1" />
<line x1="194" y1="307" x2="254" y2="227" style="stroke:rgb(0,0,0);stroke-width:1" />
<line x1="254" y1="227" x2="209" y2="122" style="stroke:rgb(0,0,0);stroke-width:1" />
<line x1="153" y1="205" x2="205" y2="211" style="stroke:rgb(0,0,0);stroke-width:1" />
<line x1="205" y1="211" x2="205" y2="211" style="stroke:rgb(0,0,0);stroke-width:1" />
<line x1="205" y1="211" x2="153" y2="205" style="stroke:rgb(0,0,0);stroke-width:1" />
<line x1="258" y1="137" x2="254" y2="227" style="stroke:rgb(0,0,0);stroke-width:1" />
<line x1="254" y1="227" x2="301" y2="231" style="stroke:rgb(0,0,0);stroke-width:1" />
<line x1="301" y1="231" x2="258" y2="137" style="stroke:rgb(0,0,0);stroke-width:1" />
<line x1="209" y1="122" x2="205" y2="211" style="stroke:rgb(0,0,0);stroke-width:1" />
<line x1="205" y1="211" x2="194" y2="307" style="stroke:rgb(0,0,0);stroke-width:1" />
<line x1="194" y1="307" x2="209" y2="122" style="stroke:rgb(0,0,0);stroke-width:1" />
<line x1="209" y1="122" x2="244" y2="304" style="stroke:rgb(0,0,0);stroke-width:1" />
<line x1="244" y1="304" x2="153" y2="205" style="stroke:rgb(0,0,0);stroke-width:1" />
<line x1="153" y1="205" x2="209" y2="122" style="stroke:rgb(0,0,0);stroke-width:1" />
<line x1="194" y1="307" x2="301" y2="231" style="stroke:rgb(0,0,0);stroke-width:1" />
<line x1="301" y1="231" x2="254" y2="227" style="stroke:rgb(0,0,0);stroke-width:1" />
<line x1="254" y1="227" x2="194" y2="307" style="stroke:rgb(0,0,0);stroke-width:1" />
<line x1="258" y1="137" x2="301" y2="231" style="stroke:rgb(0,0,0);stroke-width:1" />
<line x1="301" y1="231" x2="205" y2="211" style="stroke:rgb(0,0,0);stroke-width:1" />
<line x1="205" y1="211" x2="258" y2="137" style="stroke:rgb(0,0,0);stroke-width:1" />
<line x1="275" y1="404" x2="259" y2="409" style="stroke:rgb(0,0,0);stroke-width:1" />
<line x1="259" y1="409" x2="259" y2="409" style="stroke:rgb(0,0,0);stroke-width:1" />
<line x1="259" y1="409" x2="275" y2="404" style="stroke:rgb(0,0,0);stroke-width:1" />
<line x1="215" y1="301" x2="215" y2="301" style="stroke:rgb(0,0,0);stroke-width:1" />
<line x1="215" y1="301" x2="232" y2="300" style="stroke:rgb(0,0,0);stroke-width:1" />
<line x1="232" y1="300" x2="215" y2="301" style="stroke:rgb(0,0,0);stroke-width:1" />
<line x1="232" y1="300" x2="275" y2="404" style="stroke:rgb(0,0,0);stroke-width:1" />
<line x1="275" y1="404" x2="295" y2="381" style="stroke:rgb(0,0,0);stroke-width:1" />
<line x1="295" y1="381" x2="232" y2="300" style="stroke:rgb(0,0,0);stroke-width:1" />
<line x1="275" y1="404" x2="232" y2="300" style="stroke:rgb(0,0,0);stroke-width:1" />
<line x1="232" y1="300" x2="251" y2="276" style="stroke:rgb(0,0,0);stroke-width:1" />
<line x1="251" y1="276" x2="275" y2="404" style="stroke:rgb(0,0,0);stroke-width:1" />
<line x1="251" y1="276" x2="295" y2="381" style="stroke:rgb(0,0,0);stroke-width:1" />
<line x1="295" y1="381" x2="280" y2="385" style="stroke:rgb(0,0,0);stroke-width:1" />
<line x1="280" y1="385" x2="251" y2="276" style="stroke:rgb(0,0,0);stroke-width:1" />
<line x1="295" y1="381" x2="251" y2="276" style="stroke:rgb(0,0,0);stroke-width:1" />
<line x1="251" y1="276" x2="235" y2="276" style="stroke:rgb(0,0,0);stroke-width:1" />
<line x1="235" y1="276" x2="295" y2="381" style="stroke:rgb(0,0,0);stroke-width:1" />
<line x1="235" y1="276" x2="280" y2="385" style="stroke:rgb(0,0,0);stroke-width:1" />
<line x1="280" y1="385" x2="259" y2="409" style="stroke:rgb(0,0,0);stroke-width:1" />
<line x1="259" y1="409" x2="235" y2="276" style="stroke:rgb(0,0,0);stroke-width:1" />
<line x1="280" y1="385" x2="235" y2="276" style="stroke:rgb(0,0,0);stroke-width:1" />
<line x1="235" y1="276" x2="215" y2="301" style="stroke:rgb(0,0,0);stroke-width:1" />
<line x1="215" y1="301" x2="280" y2="385" style="stroke:rgb(0,0,0);stroke-width:1" />
<line x1="275" y1="404" x2="215" y2="301" style="stroke:rgb(0,0,0);stroke-width:1" />
<line x1="215" y1="301" x2="295" y2="381" style="stroke:rgb(0,0,0);stroke-width:1" />
<line x1="295" y1="381" x2="275" y2="404" style="stroke:rgb(0,0,0);stroke-width:1" />
<line x1="232" y1="300" x2="280" y2="385" style="stroke:rgb(0,0,0);stroke-width:1" />
<line x1="280" y1="385" x2="251" y2="276" style="stroke:rgb(0,0,0);stroke-width:1" />
<line x1="251" y1="276" x2="232" y2="300" style="stroke:rgb(0,0,0);stroke-width:1" />
<line x1="259" y1="409" x2="235" y2="276" style="stroke:rgb(0,0,0);stroke-width:1" />
<line x1="235" y1="276" x2="259" y2="409" style="stroke:rgb(0,0,0);stroke-width:1" />
<line x1="259" y1="409" x2="259" y2="409" style="stroke:rgb(0,0,0);stroke-width:1" />
<line x1="295" y1="381" x2="235" y2="276" style="stroke:rgb(0,0,0);stroke-width:1" />
<line x1="235" y1="276" x2="232" y2="300" style="stroke:rgb(0,0,0);stroke-width:1" />
<line x1="232" y1="300" x2="295" y2="381" style="stroke:rgb(0,0,0);stroke-width:1" />
<line x1="308" y1="366" x2="293" y2="370" style="stroke:rgb(0,0,0);stroke-width:1" />
<line x1="293" y1="370" x2="293" y2="370" style="stroke:rgb(0,0,0);stroke-width:1" />
<line x1="293" y1="370" x2="308" y2="366" style="stroke:rgb(0,0,0);stroke-width:1" />
<line x1="246" y1="260" x2="246" y2="260" style="stroke:rgb(0,0,0);stroke-width:1" />
<line x1="246" y1="260" x2="262" y2="261" style="stroke:rgb(0,0,0);stroke-width:1" />
<line x1="262" y1="261" x2="246" y2="260" style="stroke:rgb(0,0,0);stroke-width:1" />
<line x1="262" y1="261" x2="308" y2="366" style="stroke:rgb(0,0,0);stroke-width:1" />
<line x1="308" y1="366" x2="330" y2="341" style="stroke:rgb(0,0,0);stroke-width:1" />
<line x1="330" y1="341" x2="262" y2="261" style="stroke:rgb(0,0,0);stroke-width:1" />
<line x1="308" y1="366" x2="262" y2="261" style="stroke:rgb(0,0,0);stroke-width:1" />
<line x1="262" y1="261" x2="282" y2="235" style="stroke:rgb(0,0,0);stroke-width:1" />
<line x1="282" y1="235" x2="308" y2="366" style="stroke:rgb(0,0,0);stroke-width:1" />
<line x1="282" y1="235" x2="330" y2="341" style="stroke:rgb(0,0,0);stroke-width:1" />
<line x1="330" y1="341" x2="315" y2="344" style="stroke:rgb(0,0,0);stroke-width:1" />
<line x1="315" y1="344" x2="282" y2="235" style="stroke:rgb(0,0,0);stroke-width:1" />
<line x1="330" y1="341" x2="282" y2="235" style="stroke:rgb(0,0,0);stroke-width:1" />
<line x1="282" y1="235" x2="267" y2="234" style="stroke:rgb(0,0,0);stroke-width:1" />
<line x1="267" y1="234" x2="330" y2="341" style="stroke:rgb(0,0,0);stroke-width:1" />
<line x1="267" y1="234" x2="315" y2="344" style="stroke:rgb(0,0,0);stroke-width:1" />
<line x1="315" y1="344" x2="293" y2="370" style="stroke:rgb(0,0,0);stroke-width:1" />
<line x1="293" y1="370" x2="267" y2="234" style="stroke:rgb(0,0,0);stroke-width:1" />
<line x1="315" y1="344" x2="267" y2="234" style="stroke:rgb(0,0,0);stroke-width:1" />
<line x1="267" y1="234" x2="246" y2="260" style="stroke:rgb(0,0,0);stroke-width:1" />
<line x1="246" y1="260" x2="315" y2="344" style="stroke:rgb(0,0,0);stroke-width:1" />
<line x1="308" y1="366" x2="246" y2="260" style="stroke:rgb(0,0,0);stroke-width:1" />
<line x1="246" y1="260" x2="330" y2="341" style="stroke:rgb(0,0,0);stroke-width:1" />
<line x1="330" y1="341" x2="308" y2="366" style="stroke:rgb(0,0,0);stroke-width:1" />
<line x1="262" y1="261" x2="315" y2="344" style="stroke:rgb(0,0,0);stroke-width:1" />
<line x1="315" y1="344" x2="282" y2="235" style="stroke:rgb(0,0,0);stroke-width:1" />
<line x1="282" y1="235" x2="262" y2="261" style="stroke:rgb(0,0,0);stroke-width:1" />
<line x1="293" y1="370" x2="267" y2="234" style="stroke:rgb(0,0,0);stroke-width:1" />
<line x1="267" y1="234" x2="293" y2="370" style="stroke:rgb(0,0,0);stroke-width:1" />
<line x1="293" y1="370" x2="293" y2="370" style="stroke:rgb(0,0,0);stroke-width:1" />
<line x1="330" y1="341" x2="267" y2="234" style="stroke:rgb(0,0,0);stroke-width:1" />
<line x1="267" y1="234" x2="262" y2="261" style="stroke:rgb(0,0,0);stroke-width:1" />
<line x1="262" y1="261" x2="330" y2="341" style="stroke:rgb(0,0,0);stroke-width:1" />
<line x1="177" y1="216" x2="170" y2="216" style="stroke:rgb(0,0,0);stroke-width:1" />
<line x1="170" y1="216" x2="170" y2="216" style="stroke:rgb(0,0,0);stroke-width:1" />
<line x1="170" y1="216" x2="177" y2="216" style="stroke:rgb(0,0,0);stroke-width:1" />
<line x1="167" y1="209" x2="167" y2="209" style="stroke:rgb(0,0,0);stroke-width:1" />
<line x1="167" y1="209" x2="174" y2="210" style="stroke:rgb(0,0,0);stroke-width:1" />
<line x1="174" y1="210" x2="167" y2="209" style="stroke:rgb(0,0,0);stroke-width:1" />
<line x1="174" y1="210" x2="177" y2="216" style="stroke:rgb(0,0,0);stroke-width:1" />
<line x1="177" y1="216" x2="244" y2="119" style="stroke:rgb(0,0,0);stroke-width:1" />
<line x1="244" y1="119" x2="174" y2="210" style="stroke:rgb(0,0,0);stroke-width:1" />
<line x1="177" y1="216" x2="174" y2="210" style="stroke:rgb(0,0,0);stroke-width:1" />
<line x1="174" y1="210" x2="241" y2="112" style="stroke:rgb(0,0,0);stroke-width:1" />
<line x1="241" y1="112" x2="177" y2="216" style="stroke:rgb(0,0,0);stroke-width:1" />
<line x1="241" y1="112" x2="244" y2="119" style="stroke:rgb(0,0,0);stroke-width:1" />
<line x1="244" y1="119" x2="238" y2="117" style="stroke:rgb(0,0,0);stroke-width:1" />
<line x1="238" y1="117" x2="241" y2="112" style="stroke:rgb(0,0,0);stroke-width:1" />
<line x1="244" y1="119" x2="241" y2="112" style="stroke:rgb(0,0,0);stroke-width:1" />
<line x1="241" y1="112" x2="235" y2="110" style="stroke:rgb(0,0,0);stroke-width:1" />
<line x1="235" y1="110" x2="244" y2="119" style="stroke:rgb(0,0,0);stroke-width:1" />
<line x1="235" y1="110" x2="238" y2="117" style="stroke:rgb(0,0,0);stroke-width:1" />
<line x1="238" y1="117" x2="170" y2="216" style="stroke:rgb(0,0,0);stroke-width:1" />
<line x1="170" y1="216" x2="235" y2="110" style="stroke:rgb(0,0,0);stroke-width:1" />
<line x1="238" y1="117" x2="235" y2="110" style="stroke:rgb(0,0,0);stroke-width:1" />
<line x1="235" y1="110" x2="167" y2="209" style="stroke:rgb(0,0,0);stroke-width:1" />
<line x1="167" y1="209" x2="238" y2="117" style="stroke:rgb(0,0,0);stroke-width:1" />
<line x1="177" y1="216" x2="167" y2="209" style="stroke:rgb(0,0,0);stroke-width:1" />
<line x1="167" y1="209" x2="244" y2="119" style="stroke:rgb(0,0,0);stroke-width:1" />
<line x1="244" y1="119" x2="177" y2="216" style="stroke:rgb(0,0,0);stroke-width:1" />
<line x1="174" y1="210" x2="238" y2="117" style="stroke:rgb(0,0,0);stroke-width:1" />
<line x1="238" y1="117" x2="241" y2="112" style="stroke:rgb(0,0,0);stroke-width:1" />
<line x1="241" y1="112" x2="174" y2="210" style="stroke:rgb(0,0,0);stroke-width:1" />
<line x1="170" y1="216" x2="235" y2="110" style="stroke:rgb(0,0,0);stroke-width:1" />
<line x1="235" y1="110" x2="170" y2="216" style="stroke:rgb(0,0,0);stroke-width:1" />
<line x1="170" y1="216" x2="170" y2="216" style="stroke:rgb(0,0,0);stroke-width:1" />
<line x1="244" y1="119" x2="235" y2="110" style="stroke:rgb(0,0,0);stroke-width:1" />
<line x1="235" y1="110" x2="174" y2="210" style="stroke:rgb(0,0,0);stroke-width:1" />
<line x1="174" y1="210" x2="244" y2="119" style="stroke:rgb(0,0,0);stroke-width:1" />
<line x1="271" y1="196" x2="256" y2="194" style="stroke:rgb(0,0,0);stroke-width:1" />
<line x1="256" y1="194" x2="256" y2="194" style="stroke:rgb(0,0,0);stroke-width:1" />
<line x1="256" y1="194" x2="271" y2="196" style="stroke:rgb(0,0,0);stroke-width:1" />
<line x1="241" y1="160" x2="241" y2="160" style="stroke:rgb(0,0,0);stroke-width:1" />
<line x1="241" y1="160" x2="257" y2="164" style="stroke:rgb(0,0,0);stroke-width:1" />
<line x1="257" y1="164" x2="241" y2="160" style="stroke:rgb(0,0,0);stroke-width:1" />
<line x1="257" y1="164" x2="271" y2="196" style="stroke:rgb(0,0,0);stroke-width:1" />
<line x1="271" y1="196" x2="281" y2="183" style="stroke:rgb(0,0,0);stroke-width:1" />
<line x1="281" y1="183" x2="257" y2="164" style="stroke:rgb(0,0,0);stroke-width:1" />
<line x1="271" y1="196" x2="257" y2="164" style="stroke:rgb(0,0,0);stroke-width:1" />
<line x1="257" y1="164" x2="267" y2="150" style="stroke:rgb(0,0,0);stroke-width:1" />
<line x1="267" y1="150" x2="271" y2="196" style="stroke:rgb(0,0,0);stroke-width:1" />
<line x1="267" y1="150" x2="281" y2="183" style="stroke:rgb(0,0,0);stroke-width:1" />
<line x1="281" y1="183" x2="266" y2="180" style="stroke:rgb(0,0,0);stroke-width:1" />
<line x1="266" y1="180" x2="267" y2="150" style="stroke:rgb(0,0,0);stroke-width:1" />
<line x1="281" y1="183" x2="267" y2="150" style="stroke:rgb(0,0,0);stroke-width:1" />
<line x1="267" y1="150" x2="251" y2="146" style="stroke:rgb(0,0,0);stroke-width:1" />
<line x1="251" y1="146" x2="281" y2="183" style="stroke:rgb(0,0,0);stroke-width:1" />
<line x1="251" y1="146" x2="266" y2="180" style="stroke:rgb(0,0,0);stroke-width:1" />
<line x1="266" y1="180" x2="256" y2="194" style="stroke:rgb(0,0,0);stroke-width:1" />
<line x1="256" y1="194" x2="251" y2="146" style="stroke:rgb(0,0,0);stroke-width:1" />
<line x1="266" y1="180" x2="251" y2="146" style="stroke:rgb(0,0,0);stroke-width:1" />
<line x1="251" y1="146" x2="241" y2="160" style="stroke:rgb(0,0,0);stroke-width:1" />
<line x1="241" y1="160" x2="266" y2="180" style="stroke:rgb(0,0,0);stroke-width:1" />
<line x1="271" y1="196" x2="241" y2="160" style="stroke:rgb(0,0,0);stroke-width:1" />
<line x1="241" y1="160" x2="281" y2="183" style="stroke:rgb(0,0,0);stroke-width:1" />
<line x1="281" y1="183" x2="271" y2="196" style="stroke:rgb(0,0,0);stroke-width:1" />
<line x1="257" y1="164" x2="266" y2="180" style="stroke:rgb(0,0,0);stroke-width:1" />
<line x1="266" y1="180" x2="267" y2="150" style="stroke:rgb(0,0,0);stroke-width:1" />
<line x1="267" y1="150" x2="257" y2="164" style="stroke:rgb(0,0,0);stroke-width:1" />
<line x1="256" y1="194" x2="251" y2="146" style="stroke:rgb(0,0,0);stroke-width:1" />
<line x1="251" y1="146" x2="256" y2="194" style="stroke:rgb(0,0,0);stroke-width:1" />
<line x1="256" y1="194" x2="256" y2="194" style="stroke:rgb(0,0,0);stroke-width:1" />
<line x1="281" y1="183" x2="251" y2="146" style="stroke:rgb(0,0,0);stroke-width:1" />
<line x1="251" y1="146" x2="257" y2="164" style="stroke:rgb(0,0,0);stroke-width:1" />
<line x1="257" y1="164" x2="281" y2="183" style="stroke:rgb(0,0,0);stroke-width:1" />
<line x1="266" y1="180" x2="251" y2="146" style="stroke:rgb(0,0,0);stroke-width:1" />
<line x1="251" y1="146" x2="267" y2="150" style="stroke:rgb(0,0,0);stroke-width:1" />
<line x1="267" y1="150" x2="266" y2="180" style="stroke:rgb(0,0,0);stroke-width:1" />
<line x1="241" y1="112" x2="235" y2="110" style="stroke:rgb(0,0,0);stroke-width:1" />
<line x1="235" y1="110" x2="260" y2="152" style="stroke:rgb(0,0,0);stroke-width:1" />
<line x1="260" y1="152" x2="241" y2="112" style="stroke:rgb(0,0,0);stroke-width:1" />
<line x1="241" y1="112" x2="238" y2="118" style="stroke:rgb(0,0,0);stroke-width:1" />
<line x1="238" y1="118" x2="231" y2="116" style="stroke:rgb(0,0,0);stroke-width:1" />
<line x1="231" y1="116" x2="241" y2="112" style="stroke:rgb(0,0,0);stroke-width:1" />
<line x1="256" y1="158" x2="238" y2="118" style="stroke:rgb(0,0,0);stroke-width:1" />
<line x1="238" y1="118" x2="231" y2="116" style="stroke:rgb(0,0,0);stroke-width:1" />
<line x1="231" y1="116" x2="256" y2="158" style="stroke:rgb(0,0,0);stroke-width:1" />
<line x1="235" y1="110" x2="238" y2="118" style="stroke:rgb(0,0,0);stroke-width:1" />
<line x1="238" y1="118" x2="241" y2="112" style="stroke:rgb(0,0,0);stroke-width:1" />
<line x1="241" y1="112" x2="235" y2="110" style="stroke:rgb(0,0,0);stroke-width:1" />
<line x1="235" y1="110" x2="253" y2="151" style="stroke:rgb(0,0,0);stroke-width:1" />
<line x1="253" y1="151" x2="231" y2="116" style="stroke:rgb(0,0,0);stroke-width:1" />
<line x1="231" y1="116" x2="235" y2="110" style="stroke:rgb(0,0,0);stroke-width:1" />
<line x1="249" y1="156" x2="260" y2="152" style="stroke:rgb(0,0,0);stroke-width:1" />
<line x1="260" y1="152" x2="256" y2="158" style="stroke:rgb(0,0,0);stroke-width:1" />
<line x1="256" y1="158" x2="249" y2="156" style="stroke:rgb(0,0,0);stroke-width:1" />
<line x1="253" y1="151" x2="249" y2="156" style="stroke:rgb(0,0,0);stroke-width:1" />
<line x1="249" y1="156" x2="249" y2="156" style="stroke:rgb(0,0,0);stroke-width:1" />
<line x1="249" y1="156" x2="253" y2="151" style="stroke:rgb(0,0,0);stroke-width:1" />
<line x1="256" y1="158" x2="260" y2="152" style="stroke:rgb(0,0,0);stroke-width:1" />
<line x1="260" y1="152" x2="253" y2="151" style="stroke:rgb(0,0,0);stroke-width:1" />
<line x1="253" y1="151" x2="256" y2="158" style="stroke:rgb(0,0,0);stroke-width:1" />
<line x1="238" y1="118" x2="235" y2="110" style="stroke:rgb(0,0,0);stroke-width:1" />
<line x1="235" y1="110" x2="256" y2="158" style="stroke:rgb(0,0,0);stroke-width:1" />
<line x1="256" y1="158" x2="238" y2="118" style="stroke:rgb(0,0,0);stroke-width:1" />
<line x1="241" y1="112" x2="231" y2="116" style="stroke:rgb(0,0,0);stroke-width:1" />
<line x1="231" y1="116" x2="253" y2="151" style="stroke:rgb(0,0,0);stroke-width:1" />
<line x1="253" y1="151" x2="241" y2="112" style="stroke:rgb(0,0,0);stroke-width:1" />
<line x1="238" y1="118" x2="249" y2="156" style="stroke:rgb(0,0,0);stroke-width:1" />
<line x1="249" y1="156" x2="253" y2="151" style="stroke:rgb(0,0,0);stroke-width:1" />
<line x1="253" y1="151" x2="238" y2="118" style="stroke:rgb(0,0,0);stroke-width:1" />
<line x1="241" y1="112" x2="260" y2="152" style="stroke:rgb(0,0,0);stroke-width:1" />
<line x1="260" y1="152" x2="249" y2="156" style="stroke:rgb(0,0,0);stroke-width:1" />
<line x1="249" y1="156" x2="241" y2="112" style="stroke:rgb(0,0,0);stroke-width:1" />
<line x1="206" y1="284" x2="189" y2="285" style="stroke:rgb(0,0,0);stroke-width:1" />
<line x1="189" y1="285" x2="189" y2="285" style="stroke:rgb(0,0,0);stroke-width:1" />
<line x1="189" y1="285" x2="206" y2="284" style="stroke:rgb(0,0,0);stroke-width:1" />
<line x1="176" y1="252" x2="176" y2="252" style="stroke:rgb(0,0,0);stroke-width:1" />
<line x1="176" y1="252" x2="193" y2="252" style="stroke:rgb(0,0,0);stroke-width:1" />
<line x1="193" y1="252" x2="176" y2="252" style="stroke:rgb(0,0,0);stroke-width:1" />
<line x1="193" y1="252" x2="206" y2="284" style="stroke:rgb(0,0,0);stroke-width:1" />
<line x1="206" y1="284" x2="215" y2="272" style="stroke:rgb(0,0,0);stroke-width:1" />
<line x1="215" y1="272" x2="193" y2="252" style="stroke:rgb(0,0,0);stroke-width:1" />
<line x1="206" y1="284" x2="193" y2="252" style="stroke:rgb(0,0,0);stroke-width:1" />
<line x1="193" y1="252" x2="202" y2="240" style="stroke:rgb(0,0,0);stroke-width:1" />
<line x1="202" y1="240" x2="206" y2="284" style="stroke:rgb(0,0,0);stroke-width:1" />
<line x1="202" y1="240" x2="215" y2="272" style="stroke:rgb(0,0,0);stroke-width:1" />
<line x1="215" y1="272" x2="198" y2="272" style="stroke:rgb(0,0,0);stroke-width:1" />
<line x1="198" y1="272" x2="202" y2="240" style="stroke:rgb(0,0,0);stroke-width:1" />
<line x1="215" y1="272" x2="202" y2="240" style="stroke:rgb(0,0,0);stroke-width:1" />
<line x1="202" y1="240" x2="185" y2="239" style="stroke:rgb(0,0,0);stroke-width:1" />
<line x1="185" y1="239" x2="215" y2="272" style="stroke:rgb(0,0,0);stroke-width:1" />
<line x1="185" y1="239" x2="198" y2="272" style="stroke:rgb(0,0,0);stroke-width:1" />
<line x1="198" y1="272" x2="189" y2="285" style="stroke:rgb(0,0,0);stroke-width:1" />
<line x1="189" y1="285" x2="185" y2="239" style="stroke:rgb(0,0,0);stroke-width:1" />
<line x1="198" y1="272" x2="185" y2="239" style="stroke:rgb(0,0,0);stroke-width:1" />
<line x1="185" y1="239" x2="176" y2="252" style="stroke:rgb(0,0,0);stroke-width:1" />
<line x1="176" y1="252" x2="198" y2="272" style="stroke:rgb(0,0,0);stroke-width:1" />
<line x1="206" y1="284" x2="176" y2="252" style="stroke:rgb(0,0,0);stroke-width:1" />
<line x1="176" y1="252" x2="215" y2="272" style="stroke:rgb(0,0,0);stroke-width:1" />
<line x1="215" y1="272" x2="206" y2="284" style="stroke:rgb(0,0,0);stroke-width:1" />
<line x1="193" y1="252" x2="198" y2="272" style="stroke:rgb(0,0,0);stroke-width:1" />
<line x1="198" y1="272" x2="202" y2="240" style="stroke:rgb(0,0,0);stroke-width:1" />
<line x1="202" y1="240" x2="193" y2="252" style="stroke:rgb(0,0,0);stroke-width:1" />
<line x1="189" y1="285" x2="185" y2="239" style="stroke:rgb(0,0,0);stroke-width:1" />
<line x1="185" y1="239" x2="189" y2="285" style="stroke:rgb(0,0,0);stroke-width:1" />
<line x1="189" y1="285" x2="189" y2="285" style="stroke:rgb(0,0,0);stroke-width:1" />
<line x1="215" y1="272" x2="185" y2="239" style="stroke:rgb(0,0,0);stroke-width:1" />
<line x1="185" y1="239" x2="193" y2="252" style="stroke:rgb(0,0,0);stroke-width:1" />
<line x1="193" y1="252" x2="215" y2="272" style="stroke:rgb(0,0,0);stroke-width:1" />
<line x1="176" y1="252" x2="206" y2="284" style="stroke:rgb(0,0,0);stroke-width:1" />
<line x1="206" y1="284" x2="185" y2="239" style="stroke:rgb(0,0,0);stroke-width:1" />
<line x1="185" y1="239" x2="176" y2="252" style="stroke:rgb(0,0,0);stroke-width:1" />
<line x1="167" y1="209" x2="174" y2="210" style="stroke:rgb(0,0,0);stroke-width:1" />
<line x1="174" y1="210" x2="183" y2="249" style="stroke:rgb(0,0,0);stroke-width:1" />
<line x1="183" y1="249" x2="167" y2="209" style="stroke:rgb(0,0,0);stroke-width:1" />
<line x1="167" y1="209" x2="171" y2="204" style="stroke:rgb(0,0,0);stroke-width:1" />
<line x1="171" y1="204" x2="178" y2="205" style="stroke:rgb(0,0,0);stroke-width:1" />
<line x1="178" y1="205" x2="167" y2="209" style="stroke:rgb(0,0,0);stroke-width:1" />
<line x1="187" y1="244" x2="171" y2="204" style="stroke:rgb(0,0,0);stroke-width:1" />
<line x1="171" y1="204" x2="178" y2="205" style="stroke:rgb(0,0,0);stroke-width:1" />
<line x1="178" y1="205" x2="187" y2="244" style="stroke:rgb(0,0,0);stroke-width:1" />
<line x1="174" y1="210" x2="171" y2="204" style="stroke:rgb(0,0,0);stroke-width:1" />
<line x1="171" y1="204" x2="167" y2="209" style="stroke:rgb(0,0,0);stroke-width:1" />
<line x1="167" y1="209" x2="174" y2="210" style="stroke:rgb(0,0,0);stroke-width:1" />
<line x1="174" y1="210" x2="190" y2="249" style="stroke:rgb(0,0,0);stroke-width:1" />
<line x1="190" y1="249" x2="178" y2="205" style="stroke:rgb(0,0,0);stroke-width:1" />
<line x1="178" y1="205" x2="174" y2="210" style="stroke:rgb(0,0,0);stroke-width:1" />
<line x1="194" y1="244" x2="183" y2="249" style="stroke:rgb(0,0,0);stroke-width:1" />
<line x1="183" y1="249" x2="187" y2="244" style="stroke:rgb(0,0,0);stroke-width:1" />
<line x1="187" y1="244" x2="194" y2="244" style="stroke:rgb(0,0,0);stroke-width:1" />
<line x1="190" y1="249" x2="194" y2="244" style="stroke:rgb(0,0,0);stroke-width:1" />
<line x1="194" y1="244" x2="194" y2="244" style="stroke:rgb(0,0,0);stroke-width:1" />
<line x1="194" y1="244" x2="190" y2="249" style="stroke:rgb(0,0,0);stroke-width:1" />
<line x1="187" y1="244" x2="183" y2="249" style="stroke:rgb(0,0,0);stroke-width:1" />
<line x1="183" y1="249" x2="190" y2="249" style="stroke:rgb(0,0,0);stroke-width:1" />
<line x1="190" y1="249" x2="187" y2="244" style="stroke:rgb(0,0,0);stroke-width:1" />
<line x1="171" y1="204" x2="174" y2="210" style="stroke:rgb(0,0,0);stroke-width:1" />
<line x1="174" y1="210" x2="187" y2="244" style="stroke:rgb(0,0,0);stroke-width:1" />
<line x1="187" y1="244" x2="171" y2="204" style="stroke:rgb(0,0,0);stroke-width:1" />
<line x1="167" y1="209" x2="178" y2="205" style="stroke:rgb(0,0,0);stroke-width:1" />
<line x1="178" y1="205" x2="190" y2="249" style="stroke:rgb(0,0,0);stroke-width:1" />
<line x1="190" y1="249" x2="167" y2="209" style="stroke:rgb(0,0,0);stroke-width:1" />
<line x1="171" y1="204" x2="194" y2="244" style="stroke:rgb(0,0,0);stroke-width:1" />
<line x1="194" y1="244" x2="190" y2="249" style="stroke:rgb(0,0,0);stroke-width:1" />
<line x1="190" y1="249" x2="171" y2="204" style="stroke:rgb(0,0,0);stroke-width:1" />
<line x1="167" y1="209" x2="183" y2="249" style="stroke:rgb(0,0,0);stroke-width:1" />
<line x1="183" y1="249" x2="194" y2="244" style="stroke:rgb(0,0,0);stroke-width:1" />
<line x1="194" y1="244" x2="167" y2="209" style="stroke:rgb(0,0,0);stroke-width:1" />
</svg>
